<svg xmlns="http://www.w3.org/2000/svg" width="1920" height="1080"><path d="M1015,488L1233,660L1125,414Z" fill="#090918" stroke="#090918" stroke-width="1.51"/><path d="M1015,488L937,670L1233,660Z" fill="#090918" stroke="#090918" stroke-width="1.51"/><path d="M1233,660L1381,484L1125,414Z" fill="#090a19" stroke="#090a19" stroke-width="1.51"/><path d="M1233,660L1392,717L1381,484Z" fill="#0a0b1b" stroke="#0a0b1b" stroke-width="1.51"/><path d="M1130,936L1392,717L1233,660Z" fill="#090b1c" stroke="#090b1c" stroke-width="1.51"/><path d="M1020,925L1130,936L1233,660Z" fill="#0a0b1c" stroke="#0a0b1c" stroke-width="1.51"/><path d="M1125,414L1015,187L1015,488Z" fill="#0b0c18" stroke="#0b0c18" stroke-width="1.51"/><path d="M1015,488L722,623L937,670Z" fill="#090a18" stroke="#090a18" stroke-width="1.51"/><path d="M1126,125L1015,187L1125,414Z" fill="#0d0d19" stroke="#0d0d19" stroke-width="1.51"/><path d="M937,670L1020,925L1233,660Z" fill="#090a1a" stroke="#090a1a" stroke-width="1.51"/><path d="M937,670L777,941L1020,925Z" fill="#0a0b1b" stroke="#0a0b1b" stroke-width="1.51"/><path d="M678,375L722,623L1015,488Z" fill="#0a0b17" stroke="#0a0b17" stroke-width="1.51"/><path d="M1441,178L1126,125L1125,414Z" fill="#0d0e1b" stroke="#0d0e1b" stroke-width="1.51"/><path d="M1130,936L1510,861L1392,717Z" fill="#0a0c1e" stroke="#0a0c1e" stroke-width="1.51"/><path d="M1392,717L1624,683L1381,484Z" fill="#0a0b1d" stroke="#0a0b1d" stroke-width="1.51"/><path d="M1381,484L1441,178L1125,414Z" fill="#0c0d1b" stroke="#0c0d1b" stroke-width="1.51"/><path d="M1783,463L1441,178L1381,484Z" fill="#0c0d1d" stroke="#0c0d1d" stroke-width="1.51"/><path d="M1015,187L678,375L1015,488Z" fill="#0c0c17" stroke="#0c0c17" stroke-width="1.51"/><path d="M689,195L678,375L1015,187Z" fill="#0e0f18" stroke="#0e0f18" stroke-width="1.51"/><path d="M1510,861L1624,683L1392,717Z" fill="#090c1f" stroke="#090c1f" stroke-width="1.51"/><path d="M965,1241L1295,1132L1130,936Z" fill="#090d20" stroke="#090d20" stroke-width="1.51"/><path d="M722,623L777,941L937,670Z" fill="#0a0c1a" stroke="#0a0c1a" stroke-width="1.51"/><path d="M494,955L777,941L722,623Z" fill="#0c0e1c" stroke="#0c0e1c" stroke-width="1.51"/><path d="M905,-32L689,195L1015,187Z" fill="#0f1019" stroke="#0f1019" stroke-width="1.51"/><path d="M965,1241L1130,936L1020,925Z" fill="#090c1e" stroke="#090c1e" stroke-width="1.51"/><path d="M1130,936L1295,1132L1510,861Z" fill="#0a0d20" stroke="#0a0d20" stroke-width="1.51"/><path d="M1126,125L905,-32L1015,187Z" fill="#0e0f19" stroke="#0e0f19" stroke-width="1.51"/><path d="M1413,-1L1148,-55L1126,125Z" fill="#10111c" stroke="#10111c" stroke-width="1.51"/><path d="M1441,178L1413,-1L1126,125Z" fill="#0f101d" stroke="#0f101d" stroke-width="1.51"/><path d="M1700,146L1413,-1L1441,178Z" fill="#0f111f" stroke="#0f111f" stroke-width="1.51"/><path d="M678,375L524,624L722,623Z" fill="#0c0c18" stroke="#0c0c18" stroke-width="1.51"/><path d="M402,447L524,624L678,375Z" fill="#0d0e18" stroke="#0d0e18" stroke-width="1.51"/><path d="M1148,-55L905,-32L1126,125Z" fill="#10101a" stroke="#10101a" stroke-width="1.51"/><path d="M1624,683L1783,463L1381,484Z" fill="#090b1d" stroke="#090b1d" stroke-width="1.51"/><path d="M2012,578L1783,463L1624,683Z" fill="#0a0c20" stroke="#0a0c20" stroke-width="1.51"/><path d="M1510,861L1678,922L1624,683Z" fill="#0a0d21" stroke="#0a0d21" stroke-width="1.51"/><path d="M1733,1090L1678,922L1510,861Z" fill="#090e24" stroke="#090e24" stroke-width="1.51"/><path d="M1783,463L1700,146L1441,178Z" fill="#0d0f1f" stroke="#0d0f1f" stroke-width="1.51"/><path d="M777,941L965,1241L1020,925Z" fill="#0a0c1d" stroke="#0a0c1d" stroke-width="1.51"/><path d="M684,1204L965,1241L777,941Z" fill="#0b0e1f" stroke="#0b0e1f" stroke-width="1.51"/><path d="M1295,1132L1375,1234L1510,861Z" fill="#0a0e22" stroke="#0a0e22" stroke-width="1.51"/><path d="M1241,1463L1375,1234L1295,1132Z" fill="#090e25" stroke="#090e25" stroke-width="1.51"/><path d="M437,132L678,375L689,195Z" fill="#101119" stroke="#101119" stroke-width="1.51"/><path d="M437,132L402,447L678,375Z" fill="#101119" stroke="#101119" stroke-width="1.51"/><path d="M905,-32L730,-73L689,195Z" fill="#101219" stroke="#101219" stroke-width="1.51"/><path d="M786,-316L730,-73L905,-32Z" fill="#12131a" stroke="#12131a" stroke-width="1.51"/><path d="M524,624L494,955L722,623Z" fill="#0d0e1b" stroke="#0d0e1b" stroke-width="1.51"/><path d="M270,677L494,955L524,624Z" fill="#0e0f1b" stroke="#0e0f1b" stroke-width="1.51"/><path d="M494,955L684,1204L777,941Z" fill="#0c0e1e" stroke="#0c0e1e" stroke-width="1.51"/><path d="M1375,1234L1733,1090L1510,861Z" fill="#090f24" stroke="#090f24" stroke-width="1.51"/><path d="M2012,578L1978,351L1783,463Z" fill="#0b0e21" stroke="#0b0e21" stroke-width="1.51"/><path d="M1148,-55L1015,-341L905,-32Z" fill="#11121a" stroke="#11121a" stroke-width="1.51"/><path d="M1413,-1L1174,-263L1148,-55Z" fill="#11121c" stroke="#11121c" stroke-width="1.51"/><path d="M1494,-269L1174,-263L1413,-1Z" fill="#12141f" stroke="#12141f" stroke-width="1.51"/><path d="M730,-73L437,132L689,195Z" fill="#11131a" stroke="#11131a" stroke-width="1.51"/><path d="M1783,463L1978,351L1700,146Z" fill="#0c0f20" stroke="#0c0f20" stroke-width="1.51"/><path d="M1700,146L1791,-27L1413,-1Z" fill="#101220" stroke="#101220" stroke-width="1.51"/><path d="M2012,578L1624,683L1678,922Z" fill="#090e22" stroke="#090e22" stroke-width="1.51"/><path d="M708,1424L1017,1413L965,1241Z" fill="#090e23" stroke="#090e23" stroke-width="1.51"/><path d="M965,1241L1017,1413L1295,1132Z" fill="#090d22" stroke="#090d22" stroke-width="1.51"/><path d="M1375,1234L1484,1376L1733,1090Z" fill="#081026" stroke="#081026" stroke-width="1.51"/><path d="M2040,940L2012,578L1678,922Z" fill="#090f24" stroke="#090f24" stroke-width="1.51"/><path d="M1987,183L1791,-27L1700,146Z" fill="#0f1222" stroke="#0f1222" stroke-width="1.51"/><path d="M389,1392L708,1424L684,1204Z" fill="#0d1124" stroke="#0d1124" stroke-width="1.51"/><path d="M402,447L270,677L524,624Z" fill="#0e0f19" stroke="#0e0f19" stroke-width="1.51"/><path d="M263,435L270,677L402,447Z" fill="#0f1019" stroke="#0f1019" stroke-width="1.51"/><path d="M260,217L263,435L402,447Z" fill="#111219" stroke="#111219" stroke-width="1.51"/><path d="M1241,1463L1484,1376L1375,1234Z" fill="#090f27" stroke="#090f27" stroke-width="1.51"/><path d="M1650,-251L1494,-269L1413,-1Z" fill="#121420" stroke="#121420" stroke-width="1.51"/><path d="M1174,-263L1015,-341L1148,-55Z" fill="#12131b" stroke="#12131b" stroke-width="1.51"/><path d="M730,-73L443,-143L437,132Z" fill="#13141a" stroke="#13141a" stroke-width="1.51"/><path d="M1494,-269L1015,-341L1174,-263Z" fill="#13151d" stroke="#13151d" stroke-width="1.51"/><path d="M1017,1413L1241,1463L1295,1132Z" fill="#090e24" stroke="#090e24" stroke-width="1.51"/><path d="M1978,351L1987,183L1700,146Z" fill="#0e1122" stroke="#0e1122" stroke-width="1.51"/><path d="M2138,238L1987,183L1978,351Z" fill="#0d1123" stroke="#0d1123" stroke-width="1.51"/><path d="M1015,-341L786,-316L905,-32Z" fill="#12141a" stroke="#12141a" stroke-width="1.51"/><path d="M437,132L260,217L402,447Z" fill="#12121a" stroke="#12121a" stroke-width="1.51"/><path d="M226,-103L260,217L437,132Z" fill="#14151b" stroke="#14151b" stroke-width="1.51"/><path d="M1494,-269L2018,-297L1015,-341Z" fill="#131521" stroke="#131521" stroke-width="1.51"/><path d="M1791,-27L1650,-251L1413,-1Z" fill="#111421" stroke="#111421" stroke-width="1.51"/><path d="M1975,-118L1650,-251L1791,-27Z" fill="#111523" stroke="#111523" stroke-width="1.51"/><path d="M1923,1449L1933,1091L1733,1090Z" fill="#07102a" stroke="#07102a" stroke-width="1.51"/><path d="M1733,1090L1933,1091L1678,922Z" fill="#090f26" stroke="#090f26" stroke-width="1.51"/><path d="M684,1204L708,1424L965,1241Z" fill="#0b0e22" stroke="#0b0e22" stroke-width="1.51"/><path d="M1017,1413L708,1424L1241,1463Z" fill="#090e24" stroke="#090e24" stroke-width="1.51"/><path d="M390,1213L684,1204L494,955Z" fill="#0e1020" stroke="#0e1020" stroke-width="1.51"/><path d="M2209,424L2138,238L1978,351Z" fill="#0c1024" stroke="#0c1024" stroke-width="1.51"/><path d="M1933,1091L2040,940L1678,922Z" fill="#081026" stroke="#081026" stroke-width="1.51"/><path d="M786,-316L443,-143L730,-73Z" fill="#14151b" stroke="#14151b" stroke-width="1.51"/><path d="M189,1158L390,1213L494,955Z" fill="#0f1221" stroke="#0f1221" stroke-width="1.51"/><path d="M2040,940L2134,684L2012,578Z" fill="#090f25" stroke="#090f25" stroke-width="1.51"/><path d="M270,677L170,905L494,955Z" fill="#10111d" stroke="#10111d" stroke-width="1.51"/><path d="M-93,650L170,905L270,677Z" fill="#10121c" stroke="#10121c" stroke-width="1.51"/><path d="M-75,449L270,677L263,435Z" fill="#111119" stroke="#111119" stroke-width="1.51"/><path d="M1987,183L1975,-118L1791,-27Z" fill="#101423" stroke="#101423" stroke-width="1.51"/><path d="M2209,424L1978,351L2012,578Z" fill="#0b0f23" stroke="#0b0f23" stroke-width="1.51"/><path d="M2199,-13L1975,-118L1987,183Z" fill="#101425" stroke="#101425" stroke-width="1.51"/><path d="M1933,1091L2209,993L2040,940Z" fill="#081029" stroke="#081029" stroke-width="1.51"/><path d="M1484,1376L1662,1492L1733,1090Z" fill="#071029" stroke="#071029" stroke-width="1.51"/><path d="M1241,1463L1662,1492L1484,1376Z" fill="#081029" stroke="#081029" stroke-width="1.51"/><path d="M2134,684L2209,424L2012,578Z" fill="#090d23" stroke="#090d23" stroke-width="1.51"/><path d="M390,1213L389,1392L684,1204Z" fill="#0d1123" stroke="#0d1123" stroke-width="1.51"/><path d="M189,1158L389,1392L390,1213Z" fill="#0f1323" stroke="#0f1323" stroke-width="1.51"/><path d="M165,-304L226,-103L443,-143Z" fill="#16181c" stroke="#16181c" stroke-width="1.51"/><path d="M443,-143L226,-103L437,132Z" fill="#15161b" stroke="#15161b" stroke-width="1.51"/><path d="M260,217L-12,217L263,435Z" fill="#13141a" stroke="#13141a" stroke-width="1.51"/><path d="M170,905L189,1158L494,955Z" fill="#0f1220" stroke="#0f1220" stroke-width="1.51"/><path d="M2134,684L2465,679L2209,424Z" fill="#080f25" stroke="#080f25" stroke-width="1.51"/><path d="M2040,940L2209,993L2134,684Z" fill="#080f28" stroke="#080f28" stroke-width="1.51"/><path d="M2277,1146L2209,993L1933,1091Z" fill="#07112b" stroke="#07112b" stroke-width="1.51"/><path d="M786,-316L493,-409L443,-143Z" fill="#15171c" stroke="#15171c" stroke-width="1.51"/><path d="M1015,-341L493,-409L786,-316Z" fill="#14161c" stroke="#14161c" stroke-width="1.51"/><path d="M1662,1492L1923,1449L1733,1090Z" fill="#07112b" stroke="#07112b" stroke-width="1.51"/><path d="M226,-103L-12,217L260,217Z" fill="#15161b" stroke="#15161b" stroke-width="1.51"/><path d="M170,905L44,1185L189,1158Z" fill="#111322" stroke="#111322" stroke-width="1.51"/><path d="M2413,208L2199,-13L2138,238Z" fill="#0e1326" stroke="#0e1326" stroke-width="1.51"/><path d="M2138,238L2199,-13L1987,183Z" fill="#0e1225" stroke="#0e1225" stroke-width="1.51"/><path d="M-12,217L-75,449L263,435Z" fill="#13141a" stroke="#13141a" stroke-width="1.51"/><path d="M1975,-118L2018,-297L1650,-251Z" fill="#121524" stroke="#121524" stroke-width="1.51"/><path d="M1650,-251L2018,-297L1494,-269Z" fill="#131623" stroke="#131623" stroke-width="1.51"/><path d="M1015,-341L2143,-301L493,-409Z" fill="#13151e" stroke="#13151e" stroke-width="1.51"/><path d="M2143,-301L2018,-297L1975,-118Z" fill="#121727" stroke="#121727" stroke-width="1.51"/><path d="M-75,449L-93,650L270,677Z" fill="#11121a" stroke="#11121a" stroke-width="1.51"/><path d="M-93,650L-52,895L170,905Z" fill="#12131e" stroke="#12131e" stroke-width="1.51"/><path d="M189,1158L275,1475L389,1392Z" fill="#0f1325" stroke="#0f1325" stroke-width="1.51"/><path d="M389,1392L275,1475L708,1424Z" fill="#0e1325" stroke="#0e1325" stroke-width="1.51"/><path d="M708,1424L275,1475L1241,1463Z" fill="#0b1025" stroke="#0b1025" stroke-width="1.51"/><path d="M1241,1463L275,1475L1662,1492Z" fill="#090e25" stroke="#090e25" stroke-width="1.51"/><path d="M20,1428L275,1475L189,1158Z" fill="#101525" stroke="#101525" stroke-width="1.51"/><path d="M-52,895L44,1185L170,905Z" fill="#111421" stroke="#111421" stroke-width="1.51"/><path d="M2508,491L2413,208L2209,424Z" fill="#0b1126" stroke="#0b1126" stroke-width="1.51"/><path d="M2209,424L2413,208L2138,238Z" fill="#0c1126" stroke="#0c1126" stroke-width="1.51"/><path d="M2169,1369L2277,1146L1933,1091Z" fill="#06112d" stroke="#06112d" stroke-width="1.51"/><path d="M226,-103L-45,-96L-12,217Z" fill="#16171c" stroke="#16171c" stroke-width="1.51"/><path d="M493,-409L165,-304L443,-143Z" fill="#17181d" stroke="#17181d" stroke-width="1.51"/><path d="M1923,1449L2169,1369L1933,1091Z" fill="#06122d" stroke="#06122d" stroke-width="1.51"/><path d="M2018,-297L2143,-301L1015,-341Z" fill="#131623" stroke="#131623" stroke-width="1.51"/><path d="M2199,-13L2143,-301L1975,-118Z" fill="#111626" stroke="#111626" stroke-width="1.51"/><path d="M2199,-13L2486,-40L2143,-301Z" fill="#101628" stroke="#101628" stroke-width="1.51"/><path d="M2465,679L2134,684L2209,993Z" fill="#081028" stroke="#081028" stroke-width="1.51"/><path d="M2498,890L2465,679L2209,993Z" fill="#08102a" stroke="#08102a" stroke-width="1.51"/><path d="M-75,449L-282,617L-93,650Z" fill="#13131b" stroke="#13131b" stroke-width="1.51"/><path d="M-12,217L-264,388L-75,449Z" fill="#14151b" stroke="#14151b" stroke-width="1.51"/><path d="M165,-304L-45,-96L226,-103Z" fill="#17181d" stroke="#17181d" stroke-width="1.51"/><path d="M2465,679L2508,491L2209,424Z" fill="#090f25" stroke="#090f25" stroke-width="1.51"/><path d="M2465,679L2498,890L2508,491Z" fill="#080f27" stroke="#080f27" stroke-width="1.51"/><path d="M2277,1146L2498,890L2209,993Z" fill="#06112c" stroke="#06112c" stroke-width="1.51"/><path d="M2534,1188L2498,890L2277,1146Z" fill="#06122d" stroke="#06122d" stroke-width="1.51"/><path d="M-209,-48L-222,182L-12,217Z" fill="#17181d" stroke="#17181d" stroke-width="1.51"/><path d="M-93,650L-306,877L-52,895Z" fill="#13151e" stroke="#13151e" stroke-width="1.51"/><path d="M-222,182L-264,388L-12,217Z" fill="#15161c" stroke="#15161c" stroke-width="1.51"/><path d="M-257,1402L20,1428L44,1185Z" fill="#121627" stroke="#121627" stroke-width="1.51"/><path d="M-230,1136L44,1185L-52,895Z" fill="#121522" stroke="#121522" stroke-width="1.51"/><path d="M44,1185L20,1428L189,1158Z" fill="#111525" stroke="#111525" stroke-width="1.51"/><path d="M-264,388L-282,617L-75,449Z" fill="#13141b" stroke="#13141b" stroke-width="1.51"/><path d="M165,-304L23,-354L-45,-96Z" fill="#181a1e" stroke="#181a1e" stroke-width="1.51"/><path d="M-45,-96L-209,-48L-12,217Z" fill="#17181d" stroke="#17181d" stroke-width="1.51"/><path d="M493,-409L23,-354L165,-304Z" fill="#18191e" stroke="#18191e" stroke-width="1.51"/><path d="M2508,491L2486,-40L2413,208Z" fill="#0d1327" stroke="#0d1327" stroke-width="1.51"/><path d="M2413,208L2486,-40L2199,-13Z" fill="#0e1428" stroke="#0e1428" stroke-width="1.51"/><path d="M-238,-304L-209,-48L-45,-96Z" fill="#191a1f" stroke="#191a1f" stroke-width="1.51"/><path d="M-222,182L-238,-304L-264,388Z" fill="#17191d" stroke="#17191d" stroke-width="1.51"/><path d="M-282,617L-306,877L-93,650Z" fill="#13141d" stroke="#13141d" stroke-width="1.51"/><path d="M-238,-304L-306,877L-282,617Z" fill="#14161c" stroke="#14161c" stroke-width="1.51"/><path d="M-306,877L-230,1136L-52,895Z" fill="#131621" stroke="#131621" stroke-width="1.51"/><path d="M2498,890L2534,1188L2508,491Z" fill="#08102a" stroke="#08102a" stroke-width="1.51"/><path d="M2527,1399L2534,1188L2277,1146Z" fill="#041330" stroke="#041330" stroke-width="1.51"/><path d="M2508,491L2511,-305L2486,-40Z" fill="#0e1428" stroke="#0e1428" stroke-width="1.51"/><path d="M2486,-40L2511,-305L2143,-301Z" fill="#111729" stroke="#111729" stroke-width="1.51"/><path d="M2143,-301L2511,-305L493,-409Z" fill="#131724" stroke="#131724" stroke-width="1.51"/><path d="M2534,1188L2511,-305L2508,491Z" fill="#0a1026" stroke="#0a1026" stroke-width="1.51"/><path d="M-264,388L-238,-304L-282,617Z" fill="#16171c" stroke="#16171c" stroke-width="1.51"/><path d="M-209,-48L-238,-304L-222,182Z" fill="#18191d" stroke="#18191d" stroke-width="1.51"/><path d="M23,-354L-238,-304L-45,-96Z" fill="#191a1e" stroke="#191a1e" stroke-width="1.51"/><path d="M1662,1492L2527,1399L1923,1449Z" fill="#041330" stroke="#041330" stroke-width="1.51"/><path d="M1923,1449L2527,1399L2169,1369Z" fill="#031331" stroke="#031331" stroke-width="1.51"/><path d="M2169,1369L2527,1399L2277,1146Z" fill="#031331" stroke="#031331" stroke-width="1.51"/><path d="M-306,877L-257,1402L-230,1136Z" fill="#131724" stroke="#131724" stroke-width="1.51"/><path d="M-230,1136L-257,1402L44,1185Z" fill="#121625" stroke="#121625" stroke-width="1.51"/><path d="M20,1428L-257,1402L275,1475Z" fill="#111628" stroke="#111628" stroke-width="1.51"/></svg>