<svg xmlns="http://www.w3.org/2000/svg" width="1920" height="1080"><path d="M1000,631L939,770L1131,820Z" fill="#717171" stroke="#717171" stroke-width="1.51"/><path d="M1131,820L1152,635L1000,631Z" fill="#717171" stroke="#717171" stroke-width="1.51"/><path d="M939,770L967,937L1131,820Z" fill="#6a6a6a" stroke="#6a6a6a" stroke-width="1.51"/><path d="M1131,820L1279,778L1152,635Z" fill="#696969" stroke="#696969" stroke-width="1.51"/><path d="M1267,952L1279,778L1131,820Z" fill="#5f5f5f" stroke="#5f5f5f" stroke-width="1.51"/><path d="M967,937L1155,967L1131,820Z" fill="#626262" stroke="#626262" stroke-width="1.51"/><path d="M1152,635L1152,495L1000,631Z" fill="#797979" stroke="#797979" stroke-width="1.51"/><path d="M1308,665L1152,495L1152,635Z" fill="#737373" stroke="#737373" stroke-width="1.51"/><path d="M1279,778L1308,665L1152,635Z" fill="#6a6a6a" stroke="#6a6a6a" stroke-width="1.51"/><path d="M776,595L746,766L939,770Z" fill="#7d7d7d" stroke="#7d7d7d" stroke-width="1.51"/><path d="M1152,495L962,466L1000,631Z" fill="#818181" stroke="#818181" stroke-width="1.51"/><path d="M939,770L746,766L967,937Z" fill="#727272" stroke="#727272" stroke-width="1.51"/><path d="M776,595L939,770L1000,631Z" fill="#7d7d7d" stroke="#7d7d7d" stroke-width="1.51"/><path d="M1155,967L1267,952L1131,820Z" fill="#5c5c5c" stroke="#5c5c5c" stroke-width="1.51"/><path d="M1505,823L1449,616L1308,665Z" fill="#606060" stroke="#606060" stroke-width="1.51"/><path d="M806,493L776,595L1000,631Z" fill="#878787" stroke="#878787" stroke-width="1.51"/><path d="M962,466L806,493L1000,631Z" fill="#878787" stroke="#878787" stroke-width="1.51"/><path d="M967,937L1153,1111L1155,967Z" fill="#5a5a5a" stroke="#5a5a5a" stroke-width="1.51"/><path d="M1155,967L1153,1111L1267,952Z" fill="#545454" stroke="#545454" stroke-width="1.51"/><path d="M998,1169L1153,1111L967,937Z" fill="#575757" stroke="#575757" stroke-width="1.51"/><path d="M1152,495L1094,306L962,466Z" fill="#868686" stroke="#868686" stroke-width="1.51"/><path d="M1308,665L1325,457L1152,495Z" fill="#757575" stroke="#757575" stroke-width="1.51"/><path d="M746,766L762,1010L967,937Z" fill="#6e6e6e" stroke="#6e6e6e" stroke-width="1.51"/><path d="M1308,665L1449,616L1325,457Z" fill="#6d6d6d" stroke="#6d6d6d" stroke-width="1.51"/><path d="M1505,823L1308,665L1279,778Z" fill="#5f5f5f" stroke="#5f5f5f" stroke-width="1.51"/><path d="M1325,457L1094,306L1152,495Z" fill="#818181" stroke="#818181" stroke-width="1.51"/><path d="M962,466L757,271L806,493Z" fill="#929292" stroke="#929292" stroke-width="1.51"/><path d="M762,1010L998,1169L967,937Z" fill="#606060" stroke="#606060" stroke-width="1.51"/><path d="M746,766L601,827L762,1010Z" fill="#767676" stroke="#767676" stroke-width="1.51"/><path d="M587,656L601,827L746,766Z" fill="#828282" stroke="#828282" stroke-width="1.51"/><path d="M587,656L746,766L776,595Z" fill="#868686" stroke="#868686" stroke-width="1.51"/><path d="M1267,952L1505,823L1279,778Z" fill="#585858" stroke="#585858" stroke-width="1.51"/><path d="M1506,995L1505,823L1267,952Z" fill="#4f4f4f" stroke="#4f4f4f" stroke-width="1.51"/><path d="M623,440L587,656L776,595Z" fill="#909090" stroke="#909090" stroke-width="1.51"/><path d="M1153,1111L1281,1169L1267,952Z" fill="#4d4d4d" stroke="#4d4d4d" stroke-width="1.51"/><path d="M1266,1276L1281,1169L1153,1111Z" fill="#454545" stroke="#454545" stroke-width="1.51"/><path d="M1094,306L970,247L962,466Z" fill="#8f8f8f" stroke="#8f8f8f" stroke-width="1.51"/><path d="M806,493L623,440L776,595Z" fill="#919191" stroke="#919191" stroke-width="1.51"/><path d="M1449,616L1480,487L1325,457Z" fill="#6e6e6e" stroke="#6e6e6e" stroke-width="1.51"/><path d="M1325,457L1331,260L1094,306Z" fill="#828282" stroke="#828282" stroke-width="1.51"/><path d="M1094,306L1091,106L970,247Z" fill="#959595" stroke="#959595" stroke-width="1.51"/><path d="M1626,641L1480,487L1449,616Z" fill="#646464" stroke="#646464" stroke-width="1.51"/><path d="M646,319L623,440L806,493Z" fill="#999999" stroke="#999999" stroke-width="1.51"/><path d="M1466,1102L1506,995L1267,952Z" fill="#494949" stroke="#494949" stroke-width="1.51"/><path d="M762,1010L765,1185L998,1169Z" fill="#5c5c5c" stroke="#5c5c5c" stroke-width="1.51"/><path d="M1157,1356L1266,1276L1153,1111Z" fill="#424242" stroke="#424242" stroke-width="1.51"/><path d="M649,1128L765,1185L762,1010Z" fill="#626262" stroke="#626262" stroke-width="1.51"/><path d="M446,936L586,1009L601,827Z" fill="#787878" stroke="#787878" stroke-width="1.51"/><path d="M601,827L586,1009L762,1010Z" fill="#717171" stroke="#717171" stroke-width="1.51"/><path d="M970,247L757,271L962,466Z" fill="#969696" stroke="#969696" stroke-width="1.51"/><path d="M1496,292L1331,260L1325,457Z" fill="#7c7c7c" stroke="#7c7c7c" stroke-width="1.51"/><path d="M1281,1169L1466,1102L1267,952Z" fill="#484848" stroke="#484848" stroke-width="1.51"/><path d="M586,1009L649,1128L762,1010Z" fill="#696969" stroke="#696969" stroke-width="1.51"/><path d="M1660,941L1620,769L1505,823Z" fill="#4d4d4d" stroke="#4d4d4d" stroke-width="1.51"/><path d="M1505,823L1620,769L1449,616Z" fill="#585858" stroke="#585858" stroke-width="1.51"/><path d="M1660,941L1505,823L1506,995Z" fill="#494949" stroke="#494949" stroke-width="1.51"/><path d="M757,271L646,319L806,493Z" fill="#9b9b9b" stroke="#9b9b9b" stroke-width="1.51"/><path d="M1157,1356L1153,1111L998,1169Z" fill="#494949" stroke="#494949" stroke-width="1.51"/><path d="M1281,1169L1512,1281L1466,1102Z" fill="#3c3c3c" stroke="#3c3c3c" stroke-width="1.51"/><path d="M1620,769L1626,641L1449,616Z" fill="#5b5b5b" stroke="#5b5b5b" stroke-width="1.51"/><path d="M1480,487L1496,292L1325,457Z" fill="#747474" stroke="#747474" stroke-width="1.51"/><path d="M765,1185L928,1316L998,1169Z" fill="#515151" stroke="#515151" stroke-width="1.51"/><path d="M769,1305L928,1316L765,1185Z" fill="#515151" stroke="#515151" stroke-width="1.51"/><path d="M587,656L460,792L601,827Z" fill="#858585" stroke="#858585" stroke-width="1.51"/><path d="M586,1009L442,1133L649,1128Z" fill="#6a6a6a" stroke="#6a6a6a" stroke-width="1.51"/><path d="M408,665L460,792L587,656Z" fill="#8c8c8c" stroke="#8c8c8c" stroke-width="1.51"/><path d="M408,665L587,656L419,454Z" fill="#969696" stroke="#969696" stroke-width="1.51"/><path d="M1627,476L1496,292L1480,487Z" fill="#6e6e6e" stroke="#6e6e6e" stroke-width="1.51"/><path d="M928,1316L1157,1356L998,1169Z" fill="#484848" stroke="#484848" stroke-width="1.51"/><path d="M1304,114L1094,306L1331,260Z" fill="#8a8a8a" stroke="#8a8a8a" stroke-width="1.51"/><path d="M1304,114L1091,106L1094,306Z" fill="#929292" stroke="#929292" stroke-width="1.51"/><path d="M970,247L749,92L757,271Z" fill="#a1a1a1" stroke="#a1a1a1" stroke-width="1.51"/><path d="M757,271L574,140L646,319Z" fill="#a5a5a5" stroke="#a5a5a5" stroke-width="1.51"/><path d="M1626,641L1627,476L1480,487Z" fill="#656565" stroke="#656565" stroke-width="1.51"/><path d="M998,1506L1122,1493L1157,1356Z" fill="#3b3b3b" stroke="#3b3b3b" stroke-width="1.51"/><path d="M588,1309L769,1305L765,1185Z" fill="#565656" stroke="#565656" stroke-width="1.51"/><path d="M460,792L446,936L601,827Z" fill="#808080" stroke="#808080" stroke-width="1.51"/><path d="M649,1128L588,1309L765,1185Z" fill="#5c5c5c" stroke="#5c5c5c" stroke-width="1.51"/><path d="M1674,1161L1506,995L1466,1102Z" fill="#3d3d3d" stroke="#3d3d3d" stroke-width="1.51"/><path d="M1674,1161L1660,941L1506,995Z" fill="#3e3e3e" stroke="#3e3e3e" stroke-width="1.51"/><path d="M1850,667L1787,431L1626,641Z" fill="#595959" stroke="#595959" stroke-width="1.51"/><path d="M1626,641L1787,431L1627,476Z" fill="#616161" stroke="#616161" stroke-width="1.51"/><path d="M419,454L587,656L623,440Z" fill="#999999" stroke="#999999" stroke-width="1.51"/><path d="M233,824L267,956L446,936Z" fill="#848484" stroke="#848484" stroke-width="1.51"/><path d="M1091,106L961,82L970,247Z" fill="#9d9d9d" stroke="#9d9d9d" stroke-width="1.51"/><path d="M1503,136L1304,114L1331,260Z" fill="#868686" stroke="#868686" stroke-width="1.51"/><path d="M1091,106L1112,-75L961,82Z" fill="#a1a1a1" stroke="#a1a1a1" stroke-width="1.51"/><path d="M460,257L419,454L623,440Z" fill="#a4a4a4" stroke="#a4a4a4" stroke-width="1.51"/><path d="M460,257L623,440L646,319Z" fill="#a3a3a3" stroke="#a3a3a3" stroke-width="1.51"/><path d="M961,82L749,92L970,247Z" fill="#a3a3a3" stroke="#a3a3a3" stroke-width="1.51"/><path d="M1266,1276L1512,1281L1281,1169Z" fill="#3b3b3b" stroke="#3b3b3b" stroke-width="1.51"/><path d="M1302,1481L1512,1281L1266,1276Z" fill="#333333" stroke="#333333" stroke-width="1.51"/><path d="M267,956L442,1133L446,936Z" fill="#787878" stroke="#787878" stroke-width="1.51"/><path d="M446,936L442,1133L586,1009Z" fill="#727272" stroke="#727272" stroke-width="1.51"/><path d="M442,1133L588,1309L649,1128Z" fill="#626262" stroke="#626262" stroke-width="1.51"/><path d="M998,1506L1157,1356L928,1316Z" fill="#3f3f3f" stroke="#3f3f3f" stroke-width="1.51"/><path d="M1496,292L1503,136L1331,260Z" fill="#7f7f7f" stroke="#7f7f7f" stroke-width="1.51"/><path d="M1641,258L1503,136L1496,292Z" fill="#7a7a7a" stroke="#7a7a7a" stroke-width="1.51"/><path d="M1512,1281L1674,1161L1466,1102Z" fill="#373737" stroke="#373737" stroke-width="1.51"/><path d="M1627,476L1641,258L1496,292Z" fill="#707070" stroke="#707070" stroke-width="1.51"/><path d="M1787,431L1641,258L1627,476Z" fill="#686868" stroke="#686868" stroke-width="1.51"/><path d="M1626,641L1620,769L1850,667Z" fill="#535353" stroke="#535353" stroke-width="1.51"/><path d="M574,140L460,257L646,319Z" fill="#aaaaaa" stroke="#aaaaaa" stroke-width="1.51"/><path d="M1157,1356L1302,1481L1266,1276Z" fill="#373737" stroke="#373737" stroke-width="1.51"/><path d="M998,1506L928,1316L829,1515Z" fill="#434343" stroke="#434343" stroke-width="1.51"/><path d="M749,92L574,140L757,271Z" fill="#a9a9a9" stroke="#a9a9a9" stroke-width="1.51"/><path d="M829,1515L928,1316L769,1305Z" fill="#484848" stroke="#484848" stroke-width="1.51"/><path d="M1844,1309L1806,1124L1674,1161Z" fill="#2b2b2b" stroke="#2b2b2b" stroke-width="1.51"/><path d="M1122,1493L1302,1481L1157,1356Z" fill="#363636" stroke="#363636" stroke-width="1.51"/><path d="M1618,1521L1302,1481L1122,1493Z" fill="#303030" stroke="#303030" stroke-width="1.51"/><path d="M1850,667L1620,769L1854,829Z" fill="#4a4a4a" stroke="#4a4a4a" stroke-width="1.51"/><path d="M1854,829L1620,769L1660,941Z" fill="#474747" stroke="#474747" stroke-width="1.51"/><path d="M1806,1124L1824,962L1660,941Z" fill="#383838" stroke="#383838" stroke-width="1.51"/><path d="M408,665L233,824L460,792Z" fill="#8d8d8d" stroke="#8d8d8d" stroke-width="1.51"/><path d="M419,454L246,657L408,665Z" fill="#9b9b9b" stroke="#9b9b9b" stroke-width="1.51"/><path d="M240,458L246,657L419,454Z" fill="#a3a3a3" stroke="#a3a3a3" stroke-width="1.51"/><path d="M1824,962L1854,829L1660,941Z" fill="#3f3f3f" stroke="#3f3f3f" stroke-width="1.51"/><path d="M590,1525L829,1515L769,1305Z" fill="#4a4a4a" stroke="#4a4a4a" stroke-width="1.51"/><path d="M1307,-75L1112,-75L1304,114Z" fill="#9a9a9a" stroke="#9a9a9a" stroke-width="1.51"/><path d="M1304,114L1112,-75L1091,106Z" fill="#9a9a9a" stroke="#9a9a9a" stroke-width="1.51"/><path d="M961,82L746,-53L749,92Z" fill="#adadad" stroke="#adadad" stroke-width="1.51"/><path d="M645,-39L474,137L574,140Z" fill="#b5b5b5" stroke="#b5b5b5" stroke-width="1.51"/><path d="M233,824L446,936L460,792Z" fill="#858585" stroke="#858585" stroke-width="1.51"/><path d="M442,1133L426,1299L588,1309Z" fill="#606060" stroke="#606060" stroke-width="1.51"/><path d="M246,657L233,824L408,665Z" fill="#949494" stroke="#949494" stroke-width="1.51"/><path d="M1112,-75L980,-86L961,82Z" fill="#a8a8a8" stroke="#a8a8a8" stroke-width="1.51"/><path d="M269,251L240,458L419,454Z" fill="#acacac" stroke="#acacac" stroke-width="1.51"/><path d="M574,140L474,137L460,257Z" fill="#b1b1b1" stroke="#b1b1b1" stroke-width="1.51"/><path d="M645,-39L574,140L749,92Z" fill="#b2b2b2" stroke="#b2b2b2" stroke-width="1.51"/><path d="M1469,-66L1307,-75L1304,114Z" fill="#939393" stroke="#939393" stroke-width="1.51"/><path d="M1641,258L1641,146L1503,136Z" fill="#7a7a7a" stroke="#7a7a7a" stroke-width="1.51"/><path d="M1818,143L1641,146L1641,258Z" fill="#757575" stroke="#757575" stroke-width="1.51"/><path d="M588,1309L590,1525L769,1305Z" fill="#4f4f4f" stroke="#4f4f4f" stroke-width="1.51"/><path d="M305,1162L426,1299L442,1133Z" fill="#696969" stroke="#696969" stroke-width="1.51"/><path d="M980,-86L746,-53L961,82Z" fill="#adadad" stroke="#adadad" stroke-width="1.51"/><path d="M1824,962L1968,840L1854,829Z" fill="#3c3c3c" stroke="#3c3c3c" stroke-width="1.51"/><path d="M1674,1161L1806,1124L1660,941Z" fill="#363636" stroke="#363636" stroke-width="1.51"/><path d="M1643,1346L1674,1161L1512,1281Z" fill="#2e2e2e" stroke="#2e2e2e" stroke-width="1.51"/><path d="M1508,1463L1643,1346L1512,1281Z" fill="#292929" stroke="#292929" stroke-width="1.51"/><path d="M1469,-66L1304,114L1503,136Z" fill="#8b8b8b" stroke="#8b8b8b" stroke-width="1.51"/><path d="M1112,-75L1138,-211L980,-86Z" fill="#acacac" stroke="#acacac" stroke-width="1.51"/><path d="M246,657L101,824L233,824Z" fill="#949494" stroke="#949494" stroke-width="1.51"/><path d="M269,251L419,454L460,257Z" fill="#adadad" stroke="#adadad" stroke-width="1.51"/><path d="M127,1112L305,1162L267,956Z" fill="#797979" stroke="#797979" stroke-width="1.51"/><path d="M267,956L305,1162L442,1133Z" fill="#747474" stroke="#747474" stroke-width="1.51"/><path d="M1302,1481L1508,1463L1512,1281Z" fill="#2b2b2b" stroke="#2b2b2b" stroke-width="1.51"/><path d="M625,-232L645,-39L746,-53Z" fill="#bebebe" stroke="#bebebe" stroke-width="1.51"/><path d="M746,-53L645,-39L749,92Z" fill="#b5b5b5" stroke="#b5b5b5" stroke-width="1.51"/><path d="M1663,-63L1469,-66L1503,136Z" fill="#888888" stroke="#888888" stroke-width="1.51"/><path d="M455,1451L588,1309L426,1299Z" fill="#585858" stroke="#585858" stroke-width="1.51"/><path d="M455,1451L590,1525L588,1309Z" fill="#525252" stroke="#525252" stroke-width="1.51"/><path d="M267,129L269,251L460,257Z" fill="#b7b7b7" stroke="#b7b7b7" stroke-width="1.51"/><path d="M267,129L460,257L474,137Z" fill="#b6b6b6" stroke="#b6b6b6" stroke-width="1.51"/><path d="M1787,431L1840,263L1641,258Z" fill="#686868" stroke="#686868" stroke-width="1.51"/><path d="M1641,146L1663,-63L1503,136Z" fill="#818181" stroke="#818181" stroke-width="1.51"/><path d="M1993,476L1840,263L1787,431Z" fill="#5e5e5e" stroke="#5e5e5e" stroke-width="1.51"/><path d="M1850,667L1993,476L1787,431Z" fill="#565656" stroke="#565656" stroke-width="1.51"/><path d="M1854,829L1968,840L1850,667Z" fill="#434343" stroke="#434343" stroke-width="1.51"/><path d="M2033,1007L1968,840L1824,962Z" fill="#353535" stroke="#353535" stroke-width="1.51"/><path d="M258,1475L455,1451L426,1299Z" fill="#585858" stroke="#585858" stroke-width="1.51"/><path d="M1337,-261L1138,-211L1307,-75Z" fill="#a5a5a5" stroke="#a5a5a5" stroke-width="1.51"/><path d="M1307,-75L1138,-211L1112,-75Z" fill="#a5a5a5" stroke="#a5a5a5" stroke-width="1.51"/><path d="M980,-86L934,-215L746,-53Z" fill="#b5b5b5" stroke="#b5b5b5" stroke-width="1.51"/><path d="M233,824L101,824L267,956Z" fill="#8c8c8c" stroke="#8c8c8c" stroke-width="1.51"/><path d="M305,1162L230,1308L426,1299Z" fill="#666666" stroke="#666666" stroke-width="1.51"/><path d="M55,593L101,824L246,657Z" fill="#9d9d9d" stroke="#9d9d9d" stroke-width="1.51"/><path d="M55,593L246,657L240,458Z" fill="#a5a5a5" stroke="#a5a5a5" stroke-width="1.51"/><path d="M1138,-211L934,-215L980,-86Z" fill="#b2b2b2" stroke="#b2b2b2" stroke-width="1.51"/><path d="M1968,840L1998,593L1850,667Z" fill="#464646" stroke="#464646" stroke-width="1.51"/><path d="M1302,1481L1618,1521L1508,1463Z" fill="#2a2a2a" stroke="#2a2a2a" stroke-width="1.51"/><path d="M1508,1463L1618,1521L1643,1346Z" fill="#252525" stroke="#252525" stroke-width="1.51"/><path d="M1643,1346L1844,1309L1674,1161Z" fill="#282828" stroke="#282828" stroke-width="1.51"/><path d="M1806,1124L2033,1007L1824,962Z" fill="#313131" stroke="#313131" stroke-width="1.51"/><path d="M998,1506L1618,1521L1122,1493Z" fill="#343434" stroke="#343434" stroke-width="1.51"/><path d="M829,1515L1618,1521L998,1506Z" fill="#393939" stroke="#393939" stroke-width="1.51"/><path d="M590,1525L1618,1521L829,1515Z" fill="#3f3f3f" stroke="#3f3f3f" stroke-width="1.51"/><path d="M1840,263L1818,143L1641,258Z" fill="#6e6e6e" stroke="#6e6e6e" stroke-width="1.51"/><path d="M1983,264L1818,143L1840,263Z" fill="#686868" stroke="#686868" stroke-width="1.51"/><path d="M1998,593L1993,476L1850,667Z" fill="#4f4f4f" stroke="#4f4f4f" stroke-width="1.51"/><path d="M1833,1506L1844,1309L1643,1346Z" fill="#1e1e1e" stroke="#1e1e1e" stroke-width="1.51"/><path d="M66,490L55,593L240,458Z" fill="#acacac" stroke="#acacac" stroke-width="1.51"/><path d="M406,-33L267,129L474,137Z" fill="#bebebe" stroke="#bebebe" stroke-width="1.51"/><path d="M406,-33L474,137L645,-39Z" fill="#bcbcbc" stroke="#bcbcbc" stroke-width="1.51"/><path d="M60,975L127,1112L267,956Z" fill="#828282" stroke="#828282" stroke-width="1.51"/><path d="M127,1112L230,1308L305,1162Z" fill="#707070" stroke="#707070" stroke-width="1.51"/><path d="M450,-234L406,-33L645,-39Z" fill="#c6c6c6" stroke="#c6c6c6" stroke-width="1.51"/><path d="M66,490L240,458L123,279Z" fill="#b2b2b2" stroke="#b2b2b2" stroke-width="1.51"/><path d="M101,824L60,975L267,956Z" fill="#8a8a8a" stroke="#8a8a8a" stroke-width="1.51"/><path d="M1469,-66L1337,-261L1307,-75Z" fill="#9b9b9b" stroke="#9b9b9b" stroke-width="1.51"/><path d="M1818,143L1663,-63L1641,146Z" fill="#7b7b7b" stroke="#7b7b7b" stroke-width="1.51"/><path d="M123,279L240,458L269,251Z" fill="#b5b5b5" stroke="#b5b5b5" stroke-width="1.51"/><path d="M-72,952L60,975L101,824Z" fill="#8f8f8f" stroke="#8f8f8f" stroke-width="1.51"/><path d="M2033,1133L2033,1007L1806,1124Z" fill="#2a2a2a" stroke="#2a2a2a" stroke-width="1.51"/><path d="M2195,610L2162,481L1998,593Z" fill="#474747" stroke="#474747" stroke-width="1.51"/><path d="M1998,593L2162,481L1993,476Z" fill="#4d4d4d" stroke="#4d4d4d" stroke-width="1.51"/><path d="M267,129L123,279L269,251Z" fill="#bcbcbc" stroke="#bcbcbc" stroke-width="1.51"/><path d="M110,73L123,279L267,129Z" fill="#c2c2c2" stroke="#c2c2c2" stroke-width="1.51"/><path d="M1138,-211L760,-265L934,-215Z" fill="#bababa" stroke="#bababa" stroke-width="1.51"/><path d="M1482,-276L1337,-261L1469,-66Z" fill="#9d9d9d" stroke="#9d9d9d" stroke-width="1.51"/><path d="M934,-215L760,-265L746,-53Z" fill="#bdbdbd" stroke="#bdbdbd" stroke-width="1.51"/><path d="M1337,-261L760,-265L1138,-211Z" fill="#b4b4b4" stroke="#b4b4b4" stroke-width="1.51"/><path d="M1818,143L1825,-73L1663,-63Z" fill="#7c7c7c" stroke="#7c7c7c" stroke-width="1.51"/><path d="M1993,476L1983,264L1840,263Z" fill="#5e5e5e" stroke="#5e5e5e" stroke-width="1.51"/><path d="M2162,481L1983,264L1993,476Z" fill="#545454" stroke="#545454" stroke-width="1.51"/><path d="M760,-265L625,-232L746,-53Z" fill="#c2c2c2" stroke="#c2c2c2" stroke-width="1.51"/><path d="M1984,1315L2033,1133L1844,1309Z" fill="#1e1e1e" stroke="#1e1e1e" stroke-width="1.51"/><path d="M1844,1309L2033,1133L1806,1124Z" fill="#252525" stroke="#252525" stroke-width="1.51"/><path d="M230,1308L258,1475L426,1299Z" fill="#5f5f5f" stroke="#5f5f5f" stroke-width="1.51"/><path d="M455,1451L258,1475L590,1525Z" fill="#565656" stroke="#565656" stroke-width="1.51"/><path d="M92,1357L258,1475L230,1308Z" fill="#626262" stroke="#626262" stroke-width="1.51"/><path d="M92,1357L230,1308L127,1112Z" fill="#6e6e6e" stroke="#6e6e6e" stroke-width="1.51"/><path d="M1618,1521L1833,1506L1643,1346Z" fill="#202020" stroke="#202020" stroke-width="1.51"/><path d="M1833,1506L1984,1315L1844,1309Z" fill="#1a1a1a" stroke="#1a1a1a" stroke-width="1.51"/><path d="M1663,-63L1482,-276L1469,-66Z" fill="#939393" stroke="#939393" stroke-width="1.51"/><path d="M1337,-261L1482,-276L760,-265Z" fill="#aeaeae" stroke="#aeaeae" stroke-width="1.51"/><path d="M1679,-255L1482,-276L1663,-63Z" fill="#939393" stroke="#939393" stroke-width="1.51"/><path d="M406,-33L260,-49L267,129Z" fill="#c5c5c5" stroke="#c5c5c5" stroke-width="1.51"/><path d="M235,-212L260,-49L406,-33Z" fill="#cecece" stroke="#cecece" stroke-width="1.51"/><path d="M1959,-35L1825,-73L1818,143Z" fill="#767676" stroke="#767676" stroke-width="1.51"/><path d="M55,593L-89,830L101,824Z" fill="#9d9d9d" stroke="#9d9d9d" stroke-width="1.51"/><path d="M66,490L-74,591L55,593Z" fill="#aeaeae" stroke="#aeaeae" stroke-width="1.51"/><path d="M-53,423L-74,591L66,490Z" fill="#b4b4b4" stroke="#b4b4b4" stroke-width="1.51"/><path d="M-53,423L66,490L123,279Z" fill="#b8b8b8" stroke="#b8b8b8" stroke-width="1.51"/><path d="M1983,264L2021,103L1818,143Z" fill="#686868" stroke="#686868" stroke-width="1.51"/><path d="M2198,823L1998,593L1968,840Z" fill="#3d3d3d" stroke="#3d3d3d" stroke-width="1.51"/><path d="M2198,823L1968,840L2033,1007Z" fill="#323232" stroke="#323232" stroke-width="1.51"/><path d="M625,-232L450,-234L645,-39Z" fill="#c7c7c7" stroke="#c7c7c7" stroke-width="1.51"/><path d="M760,-265L450,-234L625,-232Z" fill="#cbcbcb" stroke="#cbcbcb" stroke-width="1.51"/><path d="M-67,1137L127,1112L60,975Z" fill="#828282" stroke="#828282" stroke-width="1.51"/><path d="M-67,1137L92,1357L127,1112Z" fill="#767676" stroke="#767676" stroke-width="1.51"/><path d="M-89,830L-72,952L101,824Z" fill="#959595" stroke="#959595" stroke-width="1.51"/><path d="M-74,591L-89,830L55,593Z" fill="#a7a7a7" stroke="#a7a7a7" stroke-width="1.51"/><path d="M-93,313L-53,423L123,279Z" fill="#bfbfbf" stroke="#bfbfbf" stroke-width="1.51"/><path d="M2142,1141L2166,1004L2033,1007Z" fill="#252525" stroke="#252525" stroke-width="1.51"/><path d="M2142,1141L2033,1007L2033,1133Z" fill="#242424" stroke="#242424" stroke-width="1.51"/><path d="M260,-49L110,73L267,129Z" fill="#c8c8c8" stroke="#c8c8c8" stroke-width="1.51"/><path d="M113,-34L110,73L260,-49Z" fill="#cecece" stroke="#cecece" stroke-width="1.51"/><path d="M2166,1004L2198,823L2033,1007Z" fill="#2c2c2c" stroke="#2c2c2c" stroke-width="1.51"/><path d="M2198,823L2195,610L1998,593Z" fill="#3e3e3e" stroke="#3e3e3e" stroke-width="1.51"/><path d="M2203,249L2021,103L1983,264Z" fill="#5f5f5f" stroke="#5f5f5f" stroke-width="1.51"/><path d="M2166,1004L2138,1348L2198,823Z" fill="#222222" stroke="#222222" stroke-width="1.51"/><path d="M1984,1315L2142,1141L2033,1133Z" fill="#1e1e1e" stroke="#1e1e1e" stroke-width="1.51"/><path d="M2138,1348L2142,1141L1984,1315Z" fill="#181818" stroke="#181818" stroke-width="1.51"/><path d="M1793,-225L1679,-255L1663,-63Z" fill="#8c8c8c" stroke="#8c8c8c" stroke-width="1.51"/><path d="M1793,-225L1663,-63L1825,-73Z" fill="#858585" stroke="#858585" stroke-width="1.51"/><path d="M-116,1358L-67,1137L-230,1288Z" fill="#7a7a7a" stroke="#7a7a7a" stroke-width="1.51"/><path d="M-72,952L-67,1137L60,975Z" fill="#898989" stroke="#898989" stroke-width="1.51"/><path d="M2021,103L1959,-35L1818,143Z" fill="#6f6f6f" stroke="#6f6f6f" stroke-width="1.51"/><path d="M-35,139L-93,313L123,279Z" fill="#c5c5c5" stroke="#c5c5c5" stroke-width="1.51"/><path d="M235,-212L113,-34L260,-49Z" fill="#d3d3d3" stroke="#d3d3d3" stroke-width="1.51"/><path d="M1985,-217L1793,-225L1825,-73Z" fill="#828282" stroke="#828282" stroke-width="1.51"/><path d="M92,1357L127,1529L258,1475Z" fill="#626262" stroke="#626262" stroke-width="1.51"/><path d="M258,1475L127,1529L590,1525Z" fill="#5b5b5b" stroke="#5b5b5b" stroke-width="1.51"/><path d="M590,1525L2020,1528L1618,1521Z" fill="#2d2d2d" stroke="#2d2d2d" stroke-width="1.51"/><path d="M-50,1502L127,1529L92,1357Z" fill="#666666" stroke="#666666" stroke-width="1.51"/><path d="M-53,423L-235,446L-74,591Z" fill="#b9b9b9" stroke="#b9b9b9" stroke-width="1.51"/><path d="M-74,591L-283,757L-89,830Z" fill="#a8a8a8" stroke="#a8a8a8" stroke-width="1.51"/><path d="M-35,139L123,279L110,73Z" fill="#c7c7c7" stroke="#c7c7c7" stroke-width="1.51"/><path d="M113,-34L-35,139L110,73Z" fill="#cecece" stroke="#cecece" stroke-width="1.51"/><path d="M2142,1141L2138,1348L2166,1004Z" fill="#1c1c1c" stroke="#1c1c1c" stroke-width="1.51"/><path d="M2020,1528L2138,1348L1984,1315Z" fill="#111111" stroke="#111111" stroke-width="1.51"/><path d="M113,-34L-101,-84L-35,139Z" fill="#d6d6d6" stroke="#d6d6d6" stroke-width="1.51"/><path d="M450,-234L235,-212L406,-33Z" fill="#d0d0d0" stroke="#d0d0d0" stroke-width="1.51"/><path d="M2198,823L2203,249L2195,610Z" fill="#434343" stroke="#434343" stroke-width="1.51"/><path d="M2195,610L2203,249L2162,481Z" fill="#4a4a4a" stroke="#4a4a4a" stroke-width="1.51"/><path d="M2162,481L2203,249L1983,264Z" fill="#555555" stroke="#555555" stroke-width="1.51"/><path d="M2021,103L2183,-44L1959,-35Z" fill="#6c6c6c" stroke="#6c6c6c" stroke-width="1.51"/><path d="M127,1529L2020,1528L590,1525Z" fill="#434343" stroke="#434343" stroke-width="1.51"/><path d="M1618,1521L2020,1528L1833,1506Z" fill="#1a1a1a" stroke="#1a1a1a" stroke-width="1.51"/><path d="M1833,1506L2020,1528L1984,1315Z" fill="#151515" stroke="#151515" stroke-width="1.51"/><path d="M2203,249L2192,120L2021,103Z" fill="#5e5e5e" stroke="#5e5e5e" stroke-width="1.51"/><path d="M1959,-35L1985,-217L1825,-73Z" fill="#7b7b7b" stroke="#7b7b7b" stroke-width="1.51"/><path d="M-93,313L-235,446L-53,423Z" fill="#c0c0c0" stroke="#c0c0c0" stroke-width="1.51"/><path d="M-233,1131L-67,1137L-72,952Z" fill="#898989" stroke="#898989" stroke-width="1.51"/><path d="M-257,318L-235,446L-93,313Z" fill="#c6c6c6" stroke="#c6c6c6" stroke-width="1.51"/><path d="M-267,948L-72,952L-89,830Z" fill="#989898" stroke="#989898" stroke-width="1.51"/><path d="M-67,1137L-116,1358L92,1357Z" fill="#737373" stroke="#737373" stroke-width="1.51"/><path d="M2020,1528L2128,1511L2138,1348Z" fill="#0d0d0d" stroke="#0d0d0d" stroke-width="1.51"/><path d="M2138,1348L2128,1511L2198,823Z" fill="#181818" stroke="#181818" stroke-width="1.51"/><path d="M-235,446L-270,598L-74,591Z" fill="#b9b9b9" stroke="#b9b9b9" stroke-width="1.51"/><path d="M-270,598L-283,757L-74,591Z" fill="#b1b1b1" stroke="#b1b1b1" stroke-width="1.51"/><path d="M-283,757L-267,948L-89,830Z" fill="#a1a1a1" stroke="#a1a1a1" stroke-width="1.51"/><path d="M1793,-225L2145,-257L1679,-255Z" fill="#878787" stroke="#878787" stroke-width="1.51"/><path d="M2183,-44L1985,-217L1959,-35Z" fill="#747474" stroke="#747474" stroke-width="1.51"/><path d="M-116,1358L-50,1502L92,1357Z" fill="#696969" stroke="#696969" stroke-width="1.51"/><path d="M-267,948L-233,1131L-72,952Z" fill="#919191" stroke="#919191" stroke-width="1.51"/><path d="M-116,1358L-268,1448L-50,1502Z" fill="#6f6f6f" stroke="#6f6f6f" stroke-width="1.51"/><path d="M-232,142L-257,318L-93,313Z" fill="#cdcdcd" stroke="#cdcdcd" stroke-width="1.51"/><path d="M235,-212L69,-221L113,-34Z" fill="#dbdbdb" stroke="#dbdbdb" stroke-width="1.51"/><path d="M-80,-253L69,-221L235,-212Z" fill="#e3e3e3" stroke="#e3e3e3" stroke-width="1.51"/><path d="M-80,-253L235,-212L450,-234Z" fill="#dddddd" stroke="#dddddd" stroke-width="1.51"/><path d="M-270,598L-257,318L-283,757Z" fill="#bbbbbb" stroke="#bbbbbb" stroke-width="1.51"/><path d="M-235,446L-257,318L-270,598Z" fill="#c2c2c2" stroke="#c2c2c2" stroke-width="1.51"/><path d="M-232,142L-93,313L-35,139Z" fill="#cecece" stroke="#cecece" stroke-width="1.51"/><path d="M2192,120L2183,-44L2021,103Z" fill="#656565" stroke="#656565" stroke-width="1.51"/><path d="M2203,249L2183,-44L2192,120Z" fill="#5e5e5e" stroke="#5e5e5e" stroke-width="1.51"/><path d="M-268,1448L-230,1288L-233,1131Z" fill="#7d7d7d" stroke="#7d7d7d" stroke-width="1.51"/><path d="M-233,1131L-230,1288L-67,1137Z" fill="#828282" stroke="#828282" stroke-width="1.51"/><path d="M-101,-84L-232,142L-35,139Z" fill="#d7d7d7" stroke="#d7d7d7" stroke-width="1.51"/><path d="M69,-221L-101,-84L113,-34Z" fill="#dddddd" stroke="#dddddd" stroke-width="1.51"/><path d="M1985,-217L2145,-257L1793,-225Z" fill="#808080" stroke="#808080" stroke-width="1.51"/><path d="M1679,-255L2145,-257L1482,-276Z" fill="#8e8e8e" stroke="#8e8e8e" stroke-width="1.51"/><path d="M2183,-44L2145,-257L1985,-217Z" fill="#757575" stroke="#757575" stroke-width="1.51"/><path d="M-267,948L-268,1448L-233,1131Z" fill="#878787" stroke="#878787" stroke-width="1.51"/><path d="M-230,1288L-268,1448L-116,1358Z" fill="#747474" stroke="#747474" stroke-width="1.51"/><path d="M-283,757L-268,1448L-267,948Z" fill="#929292" stroke="#929292" stroke-width="1.51"/><path d="M69,-221L-80,-253L-101,-84Z" fill="#e5e5e5" stroke="#e5e5e5" stroke-width="1.51"/><path d="M-101,-84L-231,-78L-232,142Z" fill="#e0e0e0" stroke="#e0e0e0" stroke-width="1.51"/><path d="M760,-265L-80,-253L450,-234Z" fill="#d6d6d6" stroke="#d6d6d6" stroke-width="1.51"/><path d="M1482,-276L-80,-253L760,-265Z" fill="#c7c7c7" stroke="#c7c7c7" stroke-width="1.51"/><path d="M-224,-223L-231,-78L-101,-84Z" fill="#e9e9e9" stroke="#e9e9e9" stroke-width="1.51"/><path d="M-232,142L-231,-78L-257,318Z" fill="#d8d8d8" stroke="#d8d8d8" stroke-width="1.51"/><path d="M-80,-253L-224,-223L-101,-84Z" fill="#eaeaea" stroke="#eaeaea" stroke-width="1.51"/><path d="M-231,-78L-224,-223L-257,318Z" fill="#e1e1e1" stroke="#e1e1e1" stroke-width="1.51"/></svg>