<svg xmlns="http://www.w3.org/2000/svg" width="1920" height="1080"><path d="M1000,631L939,770L1131,820Z" fill="#ffa000" stroke="#ffa000" stroke-width="1.51"/><path d="M1131,820L1152,635L1000,631Z" fill="#ffa100" stroke="#ffa100" stroke-width="1.51"/><path d="M939,770L967,937L1131,820Z" fill="#ffa700" stroke="#ffa700" stroke-width="1.51"/><path d="M1131,820L1279,778L1152,635Z" fill="#ffa800" stroke="#ffa800" stroke-width="1.51"/><path d="M1267,952L1279,778L1131,820Z" fill="#ffb000" stroke="#ffb000" stroke-width="1.51"/><path d="M967,937L1155,967L1131,820Z" fill="#ffae00" stroke="#ffae00" stroke-width="1.51"/><path d="M1152,635L1152,495L1000,631Z" fill="#ff9a00" stroke="#ff9a00" stroke-width="1.51"/><path d="M1308,665L1152,495L1152,635Z" fill="#ffa000" stroke="#ffa000" stroke-width="1.51"/><path d="M1279,778L1308,665L1152,635Z" fill="#ffa700" stroke="#ffa700" stroke-width="1.51"/><path d="M776,595L746,766L939,770Z" fill="#ff9800" stroke="#ff9800" stroke-width="1.51"/><path d="M1152,495L962,466L1000,631Z" fill="#ff9400" stroke="#ff9400" stroke-width="1.51"/><path d="M939,770L746,766L967,937Z" fill="#ffa100" stroke="#ffa100" stroke-width="1.51"/><path d="M776,595L939,770L1000,631Z" fill="#ff9700" stroke="#ff9700" stroke-width="1.51"/><path d="M1155,967L1267,952L1131,820Z" fill="#ffb200" stroke="#ffb200" stroke-width="1.51"/><path d="M1505,823L1449,616L1308,665Z" fill="#ffaf00" stroke="#ffaf00" stroke-width="1.51"/><path d="M806,493L776,595L1000,631Z" fill="#ff9000" stroke="#ff9000" stroke-width="1.51"/><path d="M962,466L806,493L1000,631Z" fill="#ff9000" stroke="#ff9000" stroke-width="1.51"/><path d="M967,937L1153,1111L1155,967Z" fill="#ffb400" stroke="#ffb400" stroke-width="1.51"/><path d="M1155,967L1153,1111L1267,952Z" fill="#ffb800" stroke="#ffb800" stroke-width="1.51"/><path d="M998,1169L1153,1111L967,937Z" fill="#ffb600" stroke="#ffb600" stroke-width="1.51"/><path d="M1152,495L1094,306L962,466Z" fill="#ff9000" stroke="#ff9000" stroke-width="1.51"/><path d="M1308,665L1325,457L1152,495Z" fill="#ff9e00" stroke="#ff9e00" stroke-width="1.51"/><path d="M746,766L762,1010L967,937Z" fill="#ffa400" stroke="#ffa400" stroke-width="1.51"/><path d="M1308,665L1449,616L1325,457Z" fill="#ffa500" stroke="#ffa500" stroke-width="1.51"/><path d="M1505,823L1308,665L1279,778Z" fill="#ffb000" stroke="#ffb000" stroke-width="1.51"/><path d="M1325,457L1094,306L1152,495Z" fill="#ff9500" stroke="#ff9500" stroke-width="1.51"/><path d="M962,466L757,271L806,493Z" fill="#ff8700" stroke="#ff8700" stroke-width="1.51"/><path d="M762,1010L998,1169L967,937Z" fill="#ffaf00" stroke="#ffaf00" stroke-width="1.51"/><path d="M746,766L601,827L762,1010Z" fill="#ff9e00" stroke="#ff9e00" stroke-width="1.51"/><path d="M587,656L601,827L746,766Z" fill="#ff9400" stroke="#ff9400" stroke-width="1.51"/><path d="M587,656L746,766L776,595Z" fill="#ff9100" stroke="#ff9100" stroke-width="1.51"/><path d="M1267,952L1505,823L1279,778Z" fill="#ffb500" stroke="#ffb500" stroke-width="1.51"/><path d="M1506,995L1505,823L1267,952Z" fill="#ffbd00" stroke="#ffbd00" stroke-width="1.51"/><path d="M623,440L587,656L776,595Z" fill="#ff8900" stroke="#ff8900" stroke-width="1.51"/><path d="M1153,1111L1281,1169L1267,952Z" fill="#ffbe00" stroke="#ffbe00" stroke-width="1.51"/><path d="M1266,1276L1281,1169L1153,1111Z" fill="#ffc400" stroke="#ffc400" stroke-width="1.51"/><path d="M1094,306L970,247L962,466Z" fill="#ff8900" stroke="#ff8900" stroke-width="1.51"/><path d="M806,493L623,440L776,595Z" fill="#ff8800" stroke="#ff8800" stroke-width="1.51"/><path d="M1449,616L1480,487L1325,457Z" fill="#ffa300" stroke="#ffa300" stroke-width="1.51"/><path d="M1325,457L1331,260L1094,306Z" fill="#ff9400" stroke="#ff9400" stroke-width="1.51"/><path d="M1094,306L1091,106L970,247Z" fill="#ff8500" stroke="#ff8500" stroke-width="1.51"/><path d="M1626,641L1480,487L1449,616Z" fill="#ffab00" stroke="#ffab00" stroke-width="1.51"/><path d="M646,319L623,440L806,493Z" fill="#ff8200" stroke="#ff8200" stroke-width="1.51"/><path d="M1466,1102L1506,995L1267,952Z" fill="#ffc200" stroke="#ffc200" stroke-width="1.51"/><path d="M762,1010L765,1185L998,1169Z" fill="#ffb200" stroke="#ffb200" stroke-width="1.51"/><path d="M1157,1356L1266,1276L1153,1111Z" fill="#ffc700" stroke="#ffc700" stroke-width="1.51"/><path d="M649,1128L765,1185L762,1010Z" fill="#ffae00" stroke="#ffae00" stroke-width="1.51"/><path d="M446,936L586,1009L601,827Z" fill="#ff9c00" stroke="#ff9c00" stroke-width="1.51"/><path d="M601,827L586,1009L762,1010Z" fill="#ffa100" stroke="#ffa100" stroke-width="1.51"/><path d="M970,247L757,271L962,466Z" fill="#ff8400" stroke="#ff8400" stroke-width="1.51"/><path d="M1496,292L1331,260L1325,457Z" fill="#ff9a00" stroke="#ff9a00" stroke-width="1.51"/><path d="M1281,1169L1466,1102L1267,952Z" fill="#ffc200" stroke="#ffc200" stroke-width="1.51"/><path d="M586,1009L649,1128L762,1010Z" fill="#ffa800" stroke="#ffa800" stroke-width="1.51"/><path d="M1660,941L1620,769L1505,823Z" fill="#ffbf00" stroke="#ffbf00" stroke-width="1.51"/><path d="M1505,823L1620,769L1449,616Z" fill="#ffb500" stroke="#ffb500" stroke-width="1.51"/><path d="M1660,941L1505,823L1506,995Z" fill="#ffc200" stroke="#ffc200" stroke-width="1.51"/><path d="M757,271L646,319L806,493Z" fill="#ff8100" stroke="#ff8100" stroke-width="1.51"/><path d="M1157,1356L1153,1111L998,1169Z" fill="#ffc100" stroke="#ffc100" stroke-width="1.51"/><path d="M1281,1169L1512,1281L1466,1102Z" fill="#ffcc00" stroke="#ffcc00" stroke-width="1.51"/><path d="M1620,769L1626,641L1449,616Z" fill="#ffb300" stroke="#ffb300" stroke-width="1.51"/><path d="M1480,487L1496,292L1325,457Z" fill="#ff9f00" stroke="#ff9f00" stroke-width="1.51"/><path d="M765,1185L928,1316L998,1169Z" fill="#ffba00" stroke="#ffba00" stroke-width="1.51"/><path d="M769,1305L928,1316L765,1185Z" fill="#ffba00" stroke="#ffba00" stroke-width="1.51"/><path d="M587,656L460,792L601,827Z" fill="#ff9200" stroke="#ff9200" stroke-width="1.51"/><path d="M586,1009L442,1133L649,1128Z" fill="#ffa700" stroke="#ffa700" stroke-width="1.51"/><path d="M408,665L460,792L587,656Z" fill="#ff8c00" stroke="#ff8c00" stroke-width="1.51"/><path d="M408,665L587,656L419,454Z" fill="#ff8400" stroke="#ff8400" stroke-width="1.51"/><path d="M1627,476L1496,292L1480,487Z" fill="#ffa400" stroke="#ffa400" stroke-width="1.51"/><path d="M928,1316L1157,1356L998,1169Z" fill="#ffc200" stroke="#ffc200" stroke-width="1.51"/><path d="M1304,114L1094,306L1331,260Z" fill="#ff8e00" stroke="#ff8e00" stroke-width="1.51"/><path d="M1304,114L1091,106L1094,306Z" fill="#ff8700" stroke="#ff8700" stroke-width="1.51"/><path d="M970,247L749,92L757,271Z" fill="#ff7b00" stroke="#ff7b00" stroke-width="1.51"/><path d="M757,271L574,140L646,319Z" fill="#ff7700" stroke="#ff7700" stroke-width="1.51"/><path d="M1626,641L1627,476L1480,487Z" fill="#ffab00" stroke="#ffab00" stroke-width="1.51"/><path d="M998,1506L1122,1493L1157,1356Z" fill="#ffcc00" stroke="#ffcc00" stroke-width="1.51"/><path d="M588,1309L769,1305L765,1185Z" fill="#ffb700" stroke="#ffb700" stroke-width="1.51"/><path d="M460,792L446,936L601,827Z" fill="#ff9600" stroke="#ff9600" stroke-width="1.51"/><path d="M649,1128L588,1309L765,1185Z" fill="#ffb200" stroke="#ffb200" stroke-width="1.51"/><path d="M1674,1161L1506,995L1466,1102Z" fill="#ffcb00" stroke="#ffcb00" stroke-width="1.51"/><path d="M1674,1161L1660,941L1506,995Z" fill="#ffcb00" stroke="#ffcb00" stroke-width="1.51"/><path d="M1850,667L1787,431L1626,641Z" fill="#ffb500" stroke="#ffb500" stroke-width="1.51"/><path d="M1626,641L1787,431L1627,476Z" fill="#ffaf00" stroke="#ffaf00" stroke-width="1.51"/><path d="M419,454L587,656L623,440Z" fill="#ff8200" stroke="#ff8200" stroke-width="1.51"/><path d="M233,824L267,956L446,936Z" fill="#ff9400" stroke="#ff9400" stroke-width="1.51"/><path d="M1091,106L961,82L970,247Z" fill="#ff7f00" stroke="#ff7f00" stroke-width="1.51"/><path d="M1503,136L1304,114L1331,260Z" fill="#ff9100" stroke="#ff9100" stroke-width="1.51"/><path d="M1091,106L1112,-75L961,82Z" fill="#ff7b00" stroke="#ff7b00" stroke-width="1.51"/><path d="M460,257L419,454L623,440Z" fill="#ff7900" stroke="#ff7900" stroke-width="1.51"/><path d="M460,257L623,440L646,319Z" fill="#ff7a00" stroke="#ff7a00" stroke-width="1.51"/><path d="M961,82L749,92L970,247Z" fill="#ff7a00" stroke="#ff7a00" stroke-width="1.51"/><path d="M1266,1276L1512,1281L1281,1169Z" fill="#ffcd00" stroke="#ffcd00" stroke-width="1.51"/><path d="M1302,1481L1512,1281L1266,1276Z" fill="#ffd300" stroke="#ffd300" stroke-width="1.51"/><path d="M267,956L442,1133L446,936Z" fill="#ff9d00" stroke="#ff9d00" stroke-width="1.51"/><path d="M446,936L442,1133L586,1009Z" fill="#ffa100" stroke="#ffa100" stroke-width="1.51"/><path d="M442,1133L588,1309L649,1128Z" fill="#ffae00" stroke="#ffae00" stroke-width="1.51"/><path d="M998,1506L1157,1356L928,1316Z" fill="#ffc900" stroke="#ffc900" stroke-width="1.51"/><path d="M1496,292L1503,136L1331,260Z" fill="#ff9600" stroke="#ff9600" stroke-width="1.51"/><path d="M1641,258L1503,136L1496,292Z" fill="#ff9b00" stroke="#ff9b00" stroke-width="1.51"/><path d="M1512,1281L1674,1161L1466,1102Z" fill="#ffd100" stroke="#ffd100" stroke-width="1.51"/><path d="M1627,476L1641,258L1496,292Z" fill="#ffa200" stroke="#ffa200" stroke-width="1.51"/><path d="M1787,431L1641,258L1627,476Z" fill="#ffa900" stroke="#ffa900" stroke-width="1.51"/><path d="M1626,641L1620,769L1850,667Z" fill="#ffb900" stroke="#ffb900" stroke-width="1.51"/><path d="M574,140L460,257L646,319Z" fill="#ff7300" stroke="#ff7300" stroke-width="1.51"/><path d="M1157,1356L1302,1481L1266,1276Z" fill="#ffd000" stroke="#ffd000" stroke-width="1.51"/><path d="M998,1506L928,1316L829,1515Z" fill="#ffc500" stroke="#ffc500" stroke-width="1.51"/><path d="M749,92L574,140L757,271Z" fill="#ff7400" stroke="#ff7400" stroke-width="1.51"/><path d="M829,1515L928,1316L769,1305Z" fill="#ffc200" stroke="#ffc200" stroke-width="1.51"/><path d="M1844,1309L1806,1124L1674,1161Z" fill="#ffdb00" stroke="#ffdb00" stroke-width="1.51"/><path d="M1122,1493L1302,1481L1157,1356Z" fill="#ffd000" stroke="#ffd000" stroke-width="1.51"/><path d="M1618,1521L1302,1481L1122,1493Z" fill="#ffd600" stroke="#ffd600" stroke-width="1.51"/><path d="M1850,667L1620,769L1854,829Z" fill="#ffc000" stroke="#ffc000" stroke-width="1.51"/><path d="M1854,829L1620,769L1660,941Z" fill="#ffc400" stroke="#ffc400" stroke-width="1.51"/><path d="M1806,1124L1824,962L1660,941Z" fill="#ffcf00" stroke="#ffcf00" stroke-width="1.51"/><path d="M408,665L233,824L460,792Z" fill="#ff8c00" stroke="#ff8c00" stroke-width="1.51"/><path d="M419,454L246,657L408,665Z" fill="#ff8000" stroke="#ff8000" stroke-width="1.51"/><path d="M240,458L246,657L419,454Z" fill="#ff7900" stroke="#ff7900" stroke-width="1.51"/><path d="M1824,962L1854,829L1660,941Z" fill="#ffca00" stroke="#ffca00" stroke-width="1.51"/><path d="M590,1525L829,1515L769,1305Z" fill="#ffc000" stroke="#ffc000" stroke-width="1.51"/><path d="M1307,-75L1112,-75L1304,114Z" fill="#ff8200" stroke="#ff8200" stroke-width="1.51"/><path d="M1304,114L1112,-75L1091,106Z" fill="#ff8100" stroke="#ff8100" stroke-width="1.51"/><path d="M961,82L746,-53L749,92Z" fill="#ff7200" stroke="#ff7200" stroke-width="1.51"/><path d="M645,-39L474,137L574,140Z" fill="#ff6a00" stroke="#ff6a00" stroke-width="1.51"/><path d="M233,824L446,936L460,792Z" fill="#ff9200" stroke="#ff9200" stroke-width="1.51"/><path d="M442,1133L426,1299L588,1309Z" fill="#ffaf00" stroke="#ffaf00" stroke-width="1.51"/><path d="M246,657L233,824L408,665Z" fill="#ff8600" stroke="#ff8600" stroke-width="1.51"/><path d="M1112,-75L980,-86L961,82Z" fill="#ff7600" stroke="#ff7600" stroke-width="1.51"/><path d="M269,251L240,458L419,454Z" fill="#ff7300" stroke="#ff7300" stroke-width="1.51"/><path d="M574,140L474,137L460,257Z" fill="#ff6e00" stroke="#ff6e00" stroke-width="1.51"/><path d="M645,-39L574,140L749,92Z" fill="#ff6d00" stroke="#ff6d00" stroke-width="1.51"/><path d="M1469,-66L1307,-75L1304,114Z" fill="#ff8800" stroke="#ff8800" stroke-width="1.51"/><path d="M1641,258L1641,146L1503,136Z" fill="#ff9b00" stroke="#ff9b00" stroke-width="1.51"/><path d="M1818,143L1641,146L1641,258Z" fill="#ff9f00" stroke="#ff9f00" stroke-width="1.51"/><path d="M588,1309L590,1525L769,1305Z" fill="#ffbc00" stroke="#ffbc00" stroke-width="1.51"/><path d="M305,1162L426,1299L442,1133Z" fill="#ffa900" stroke="#ffa900" stroke-width="1.51"/><path d="M980,-86L746,-53L961,82Z" fill="#ff7200" stroke="#ff7200" stroke-width="1.51"/><path d="M1824,962L1968,840L1854,829Z" fill="#ffcc00" stroke="#ffcc00" stroke-width="1.51"/><path d="M1674,1161L1806,1124L1660,941Z" fill="#ffd100" stroke="#ffd100" stroke-width="1.51"/><path d="M1643,1346L1674,1161L1512,1281Z" fill="#ffd800" stroke="#ffd800" stroke-width="1.51"/><path d="M1508,1463L1643,1346L1512,1281Z" fill="#ffdc00" stroke="#ffdc00" stroke-width="1.51"/><path d="M1469,-66L1304,114L1503,136Z" fill="#ff8e00" stroke="#ff8e00" stroke-width="1.51"/><path d="M1112,-75L1138,-211L980,-86Z" fill="#ff7400" stroke="#ff7400" stroke-width="1.51"/><path d="M246,657L101,824L233,824Z" fill="#ff8700" stroke="#ff8700" stroke-width="1.51"/><path d="M269,251L419,454L460,257Z" fill="#ff7200" stroke="#ff7200" stroke-width="1.51"/><path d="M127,1112L305,1162L267,956Z" fill="#ff9c00" stroke="#ff9c00" stroke-width="1.51"/><path d="M267,956L305,1162L442,1133Z" fill="#ffa000" stroke="#ffa000" stroke-width="1.51"/><path d="M1302,1481L1508,1463L1512,1281Z" fill="#ffda00" stroke="#ffda00" stroke-width="1.51"/><path d="M625,-232L645,-39L746,-53Z" fill="#ff6300" stroke="#ff6300" stroke-width="1.51"/><path d="M746,-53L645,-39L749,92Z" fill="#ff6c00" stroke="#ff6c00" stroke-width="1.51"/><path d="M1663,-63L1469,-66L1503,136Z" fill="#ff9000" stroke="#ff9000" stroke-width="1.51"/><path d="M455,1451L588,1309L426,1299Z" fill="#ffb500" stroke="#ffb500" stroke-width="1.51"/><path d="M455,1451L590,1525L588,1309Z" fill="#ffba00" stroke="#ffba00" stroke-width="1.51"/><path d="M267,129L269,251L460,257Z" fill="#ff6900" stroke="#ff6900" stroke-width="1.51"/><path d="M267,129L460,257L474,137Z" fill="#ff6a00" stroke="#ff6a00" stroke-width="1.51"/><path d="M1787,431L1840,263L1641,258Z" fill="#ffa800" stroke="#ffa800" stroke-width="1.51"/><path d="M1641,146L1663,-63L1503,136Z" fill="#ff9600" stroke="#ff9600" stroke-width="1.51"/><path d="M1993,476L1840,263L1787,431Z" fill="#ffb100" stroke="#ffb100" stroke-width="1.51"/><path d="M1850,667L1993,476L1787,431Z" fill="#ffb600" stroke="#ffb600" stroke-width="1.51"/><path d="M1854,829L1968,840L1850,667Z" fill="#ffc600" stroke="#ffc600" stroke-width="1.51"/><path d="M2033,1007L1968,840L1824,962Z" fill="#ffd200" stroke="#ffd200" stroke-width="1.51"/><path d="M258,1475L455,1451L426,1299Z" fill="#ffb500" stroke="#ffb500" stroke-width="1.51"/><path d="M1337,-261L1138,-211L1307,-75Z" fill="#ff7900" stroke="#ff7900" stroke-width="1.51"/><path d="M1307,-75L1138,-211L1112,-75Z" fill="#ff7900" stroke="#ff7900" stroke-width="1.51"/><path d="M980,-86L934,-215L746,-53Z" fill="#ff6c00" stroke="#ff6c00" stroke-width="1.51"/><path d="M233,824L101,824L267,956Z" fill="#ff8d00" stroke="#ff8d00" stroke-width="1.51"/><path d="M305,1162L230,1308L426,1299Z" fill="#ffaa00" stroke="#ffaa00" stroke-width="1.51"/><path d="M55,593L101,824L246,657Z" fill="#ff7f00" stroke="#ff7f00" stroke-width="1.51"/><path d="M55,593L246,657L240,458Z" fill="#ff7800" stroke="#ff7800" stroke-width="1.51"/><path d="M1138,-211L934,-215L980,-86Z" fill="#ff6e00" stroke="#ff6e00" stroke-width="1.51"/><path d="M1968,840L1998,593L1850,667Z" fill="#ffc300" stroke="#ffc300" stroke-width="1.51"/><path d="M1302,1481L1618,1521L1508,1463Z" fill="#ffdb00" stroke="#ffdb00" stroke-width="1.51"/><path d="M1508,1463L1618,1521L1643,1346Z" fill="#ffe000" stroke="#ffe000" stroke-width="1.51"/><path d="M1643,1346L1844,1309L1674,1161Z" fill="#ffdd00" stroke="#ffdd00" stroke-width="1.51"/><path d="M1806,1124L2033,1007L1824,962Z" fill="#ffd600" stroke="#ffd600" stroke-width="1.51"/><path d="M998,1506L1618,1521L1122,1493Z" fill="#ffd200" stroke="#ffd200" stroke-width="1.51"/><path d="M829,1515L1618,1521L998,1506Z" fill="#ffce00" stroke="#ffce00" stroke-width="1.51"/><path d="M590,1525L1618,1521L829,1515Z" fill="#ffc900" stroke="#ffc900" stroke-width="1.51"/><path d="M1840,263L1818,143L1641,258Z" fill="#ffa400" stroke="#ffa400" stroke-width="1.51"/><path d="M1983,264L1818,143L1840,263Z" fill="#ffa900" stroke="#ffa900" stroke-width="1.51"/><path d="M1998,593L1993,476L1850,667Z" fill="#ffbd00" stroke="#ffbd00" stroke-width="1.51"/><path d="M1833,1506L1844,1309L1643,1346Z" fill="#ffe600" stroke="#ffe600" stroke-width="1.51"/><path d="M66,490L55,593L240,458Z" fill="#ff7200" stroke="#ff7200" stroke-width="1.51"/><path d="M406,-33L267,129L474,137Z" fill="#ff6300" stroke="#ff6300" stroke-width="1.51"/><path d="M406,-33L474,137L645,-39Z" fill="#ff6500" stroke="#ff6500" stroke-width="1.51"/><path d="M60,975L127,1112L267,956Z" fill="#ff9600" stroke="#ff9600" stroke-width="1.51"/><path d="M127,1112L230,1308L305,1162Z" fill="#ffa300" stroke="#ffa300" stroke-width="1.51"/><path d="M450,-234L406,-33L645,-39Z" fill="#ff5d00" stroke="#ff5d00" stroke-width="1.51"/><path d="M66,490L240,458L123,279Z" fill="#ff6d00" stroke="#ff6d00" stroke-width="1.51"/><path d="M101,824L60,975L267,956Z" fill="#ff8f00" stroke="#ff8f00" stroke-width="1.51"/><path d="M1469,-66L1337,-261L1307,-75Z" fill="#ff8200" stroke="#ff8200" stroke-width="1.51"/><path d="M1818,143L1663,-63L1641,146Z" fill="#ff9b00" stroke="#ff9b00" stroke-width="1.51"/><path d="M123,279L240,458L269,251Z" fill="#ff6b00" stroke="#ff6b00" stroke-width="1.51"/><path d="M-72,952L60,975L101,824Z" fill="#ff8b00" stroke="#ff8b00" stroke-width="1.51"/><path d="M2033,1133L2033,1007L1806,1124Z" fill="#ffdc00" stroke="#ffdc00" stroke-width="1.51"/><path d="M2195,610L2162,481L1998,593Z" fill="#ffc300" stroke="#ffc300" stroke-width="1.51"/><path d="M1998,593L2162,481L1993,476Z" fill="#ffbe00" stroke="#ffbe00" stroke-width="1.51"/><path d="M267,129L123,279L269,251Z" fill="#ff6500" stroke="#ff6500" stroke-width="1.51"/><path d="M110,73L123,279L267,129Z" fill="#ff5f00" stroke="#ff5f00" stroke-width="1.51"/><path d="M1138,-211L760,-265L934,-215Z" fill="#ff6700" stroke="#ff6700" stroke-width="1.51"/><path d="M1482,-276L1337,-261L1469,-66Z" fill="#ff8000" stroke="#ff8000" stroke-width="1.51"/><path d="M934,-215L760,-265L746,-53Z" fill="#ff6500" stroke="#ff6500" stroke-width="1.51"/><path d="M1337,-261L760,-265L1138,-211Z" fill="#ff6d00" stroke="#ff6d00" stroke-width="1.51"/><path d="M1818,143L1825,-73L1663,-63Z" fill="#ff9a00" stroke="#ff9a00" stroke-width="1.51"/><path d="M1993,476L1983,264L1840,263Z" fill="#ffb100" stroke="#ffb100" stroke-width="1.51"/><path d="M2162,481L1983,264L1993,476Z" fill="#ffb900" stroke="#ffb900" stroke-width="1.51"/><path d="M760,-265L625,-232L746,-53Z" fill="#ff6000" stroke="#ff6000" stroke-width="1.51"/><path d="M1984,1315L2033,1133L1844,1309Z" fill="#ffe500" stroke="#ffe500" stroke-width="1.51"/><path d="M1844,1309L2033,1133L1806,1124Z" fill="#ffe000" stroke="#ffe000" stroke-width="1.51"/><path d="M230,1308L258,1475L426,1299Z" fill="#ffb000" stroke="#ffb000" stroke-width="1.51"/><path d="M455,1451L258,1475L590,1525Z" fill="#ffb700" stroke="#ffb700" stroke-width="1.51"/><path d="M92,1357L258,1475L230,1308Z" fill="#ffae00" stroke="#ffae00" stroke-width="1.51"/><path d="M92,1357L230,1308L127,1112Z" fill="#ffa500" stroke="#ffa500" stroke-width="1.51"/><path d="M1618,1521L1833,1506L1643,1346Z" fill="#ffe400" stroke="#ffe400" stroke-width="1.51"/><path d="M1833,1506L1984,1315L1844,1309Z" fill="#ffea00" stroke="#ffea00" stroke-width="1.51"/><path d="M1663,-63L1482,-276L1469,-66Z" fill="#ff8900" stroke="#ff8900" stroke-width="1.51"/><path d="M1337,-261L1482,-276L760,-265Z" fill="#ff7100" stroke="#ff7100" stroke-width="1.51"/><path d="M1679,-255L1482,-276L1663,-63Z" fill="#ff8900" stroke="#ff8900" stroke-width="1.51"/><path d="M406,-33L260,-49L267,129Z" fill="#ff5c00" stroke="#ff5c00" stroke-width="1.51"/><path d="M235,-212L260,-49L406,-33Z" fill="#ff5400" stroke="#ff5400" stroke-width="1.51"/><path d="M1959,-35L1825,-73L1818,143Z" fill="#ff9e00" stroke="#ff9e00" stroke-width="1.51"/><path d="M55,593L-89,830L101,824Z" fill="#ff7f00" stroke="#ff7f00" stroke-width="1.51"/><path d="M66,490L-74,591L55,593Z" fill="#ff7100" stroke="#ff7100" stroke-width="1.51"/><path d="M-53,423L-74,591L66,490Z" fill="#ff6c00" stroke="#ff6c00" stroke-width="1.51"/><path d="M-53,423L66,490L123,279Z" fill="#ff6900" stroke="#ff6900" stroke-width="1.51"/><path d="M1983,264L2021,103L1818,143Z" fill="#ffa900" stroke="#ffa900" stroke-width="1.51"/><path d="M2198,823L1998,593L1968,840Z" fill="#ffcb00" stroke="#ffcb00" stroke-width="1.51"/><path d="M2198,823L1968,840L2033,1007Z" fill="#ffd400" stroke="#ffd400" stroke-width="1.51"/><path d="M625,-232L450,-234L645,-39Z" fill="#ff5b00" stroke="#ff5b00" stroke-width="1.51"/><path d="M760,-265L450,-234L625,-232Z" fill="#ff5800" stroke="#ff5800" stroke-width="1.51"/><path d="M-67,1137L127,1112L60,975Z" fill="#ff9600" stroke="#ff9600" stroke-width="1.51"/><path d="M-67,1137L92,1357L127,1112Z" fill="#ff9e00" stroke="#ff9e00" stroke-width="1.51"/><path d="M-89,830L-72,952L101,824Z" fill="#ff8600" stroke="#ff8600" stroke-width="1.51"/><path d="M-74,591L-89,830L55,593Z" fill="#ff7800" stroke="#ff7800" stroke-width="1.51"/><path d="M-93,313L-53,423L123,279Z" fill="#ff6300" stroke="#ff6300" stroke-width="1.51"/><path d="M2142,1141L2166,1004L2033,1007Z" fill="#ffe000" stroke="#ffe000" stroke-width="1.51"/><path d="M2142,1141L2033,1007L2033,1133Z" fill="#ffe000" stroke="#ffe000" stroke-width="1.51"/><path d="M260,-49L110,73L267,129Z" fill="#ff5a00" stroke="#ff5a00" stroke-width="1.51"/><path d="M113,-34L110,73L260,-49Z" fill="#ff5400" stroke="#ff5400" stroke-width="1.51"/><path d="M2166,1004L2198,823L2033,1007Z" fill="#ffda00" stroke="#ffda00" stroke-width="1.51"/><path d="M2198,823L2195,610L1998,593Z" fill="#ffca00" stroke="#ffca00" stroke-width="1.51"/><path d="M2203,249L2021,103L1983,264Z" fill="#ffb000" stroke="#ffb000" stroke-width="1.51"/><path d="M2166,1004L2138,1348L2198,823Z" fill="#ffe200" stroke="#ffe200" stroke-width="1.51"/><path d="M1984,1315L2142,1141L2033,1133Z" fill="#ffe600" stroke="#ffe600" stroke-width="1.51"/><path d="M2138,1348L2142,1141L1984,1315Z" fill="#ffec00" stroke="#ffec00" stroke-width="1.51"/><path d="M1793,-225L1679,-255L1663,-63Z" fill="#ff8e00" stroke="#ff8e00" stroke-width="1.51"/><path d="M1793,-225L1663,-63L1825,-73Z" fill="#ff9300" stroke="#ff9300" stroke-width="1.51"/><path d="M-116,1358L-67,1137L-230,1288Z" fill="#ff9c00" stroke="#ff9c00" stroke-width="1.51"/><path d="M-72,952L-67,1137L60,975Z" fill="#ff9000" stroke="#ff9000" stroke-width="1.51"/><path d="M2021,103L1959,-35L1818,143Z" fill="#ffa400" stroke="#ffa400" stroke-width="1.51"/><path d="M-35,139L-93,313L123,279Z" fill="#ff5d00" stroke="#ff5d00" stroke-width="1.51"/><path d="M235,-212L113,-34L260,-49Z" fill="#ff5000" stroke="#ff5000" stroke-width="1.51"/><path d="M1985,-217L1793,-225L1825,-73Z" fill="#ff9500" stroke="#ff9500" stroke-width="1.51"/><path d="M92,1357L127,1529L258,1475Z" fill="#ffae00" stroke="#ffae00" stroke-width="1.51"/><path d="M258,1475L127,1529L590,1525Z" fill="#ffb300" stroke="#ffb300" stroke-width="1.51"/><path d="M590,1525L2020,1528L1618,1521Z" fill="#ffd900" stroke="#ffd900" stroke-width="1.51"/><path d="M-50,1502L127,1529L92,1357Z" fill="#ffab00" stroke="#ffab00" stroke-width="1.51"/><path d="M-53,423L-235,446L-74,591Z" fill="#ff6800" stroke="#ff6800" stroke-width="1.51"/><path d="M-74,591L-283,757L-89,830Z" fill="#ff7800" stroke="#ff7800" stroke-width="1.51"/><path d="M-35,139L123,279L110,73Z" fill="#ff5b00" stroke="#ff5b00" stroke-width="1.51"/><path d="M113,-34L-35,139L110,73Z" fill="#ff5400" stroke="#ff5400" stroke-width="1.51"/><path d="M2142,1141L2138,1348L2166,1004Z" fill="#ffe800" stroke="#ffe800" stroke-width="1.51"/><path d="M2020,1528L2138,1348L1984,1315Z" fill="#fff200" stroke="#fff200" stroke-width="1.51"/><path d="M113,-34L-101,-84L-35,139Z" fill="#ff4d00" stroke="#ff4d00" stroke-width="1.51"/><path d="M450,-234L235,-212L406,-33Z" fill="#ff5200" stroke="#ff5200" stroke-width="1.51"/><path d="M2198,823L2203,249L2195,610Z" fill="#ffc600" stroke="#ffc600" stroke-width="1.51"/><path d="M2195,610L2203,249L2162,481Z" fill="#ffc000" stroke="#ffc000" stroke-width="1.51"/><path d="M2162,481L2203,249L1983,264Z" fill="#ffb800" stroke="#ffb800" stroke-width="1.51"/><path d="M2021,103L2183,-44L1959,-35Z" fill="#ffa600" stroke="#ffa600" stroke-width="1.51"/><path d="M127,1529L2020,1528L590,1525Z" fill="#ffc500" stroke="#ffc500" stroke-width="1.51"/><path d="M1618,1521L2020,1528L1833,1506Z" fill="#ffe900" stroke="#ffe900" stroke-width="1.51"/><path d="M1833,1506L2020,1528L1984,1315Z" fill="#ffee00" stroke="#ffee00" stroke-width="1.51"/><path d="M2203,249L2192,120L2021,103Z" fill="#ffb100" stroke="#ffb100" stroke-width="1.51"/><path d="M1959,-35L1985,-217L1825,-73Z" fill="#ff9b00" stroke="#ff9b00" stroke-width="1.51"/><path d="M-93,313L-235,446L-53,423Z" fill="#ff6100" stroke="#ff6100" stroke-width="1.51"/><path d="M-233,1131L-67,1137L-72,952Z" fill="#ff9000" stroke="#ff9000" stroke-width="1.51"/><path d="M-257,318L-235,446L-93,313Z" fill="#ff5d00" stroke="#ff5d00" stroke-width="1.51"/><path d="M-267,948L-72,952L-89,830Z" fill="#ff8500" stroke="#ff8500" stroke-width="1.51"/><path d="M-67,1137L-116,1358L92,1357Z" fill="#ffa100" stroke="#ffa100" stroke-width="1.51"/><path d="M2020,1528L2128,1511L2138,1348Z" fill="#fff400" stroke="#fff400" stroke-width="1.51"/><path d="M2138,1348L2128,1511L2198,823Z" fill="#ffec00" stroke="#ffec00" stroke-width="1.51"/><path d="M-235,446L-270,598L-74,591Z" fill="#ff6800" stroke="#ff6800" stroke-width="1.51"/><path d="M-270,598L-283,757L-74,591Z" fill="#ff7000" stroke="#ff7000" stroke-width="1.51"/><path d="M-283,757L-267,948L-89,830Z" fill="#ff7d00" stroke="#ff7d00" stroke-width="1.51"/><path d="M1793,-225L2145,-257L1679,-255Z" fill="#ff9200" stroke="#ff9200" stroke-width="1.51"/><path d="M2183,-44L1985,-217L1959,-35Z" fill="#ffa000" stroke="#ffa000" stroke-width="1.51"/><path d="M-116,1358L-50,1502L92,1357Z" fill="#ffa900" stroke="#ffa900" stroke-width="1.51"/><path d="M-267,948L-233,1131L-72,952Z" fill="#ff8a00" stroke="#ff8a00" stroke-width="1.51"/><path d="M-116,1358L-268,1448L-50,1502Z" fill="#ffa500" stroke="#ffa500" stroke-width="1.51"/><path d="M-232,142L-257,318L-93,313Z" fill="#ff5600" stroke="#ff5600" stroke-width="1.51"/><path d="M235,-212L69,-221L113,-34Z" fill="#ff4800" stroke="#ff4800" stroke-width="1.51"/><path d="M-80,-253L69,-221L235,-212Z" fill="#ff3e00" stroke="#ff3e00" stroke-width="1.51"/><path d="M-80,-253L235,-212L450,-234Z" fill="#ff4500" stroke="#ff4500" stroke-width="1.51"/><path d="M-270,598L-257,318L-283,757Z" fill="#ff6600" stroke="#ff6600" stroke-width="1.51"/><path d="M-235,446L-257,318L-270,598Z" fill="#ff6000" stroke="#ff6000" stroke-width="1.51"/><path d="M-232,142L-93,313L-35,139Z" fill="#ff5500" stroke="#ff5500" stroke-width="1.51"/><path d="M2192,120L2183,-44L2021,103Z" fill="#ffac00" stroke="#ffac00" stroke-width="1.51"/><path d="M2203,249L2183,-44L2192,120Z" fill="#ffb000" stroke="#ffb000" stroke-width="1.51"/><path d="M-268,1448L-230,1288L-233,1131Z" fill="#ff9a00" stroke="#ff9a00" stroke-width="1.51"/><path d="M-233,1131L-230,1288L-67,1137Z" fill="#ff9600" stroke="#ff9600" stroke-width="1.51"/><path d="M-101,-84L-232,142L-35,139Z" fill="#ff4c00" stroke="#ff4c00" stroke-width="1.51"/><path d="M69,-221L-101,-84L113,-34Z" fill="#ff4500" stroke="#ff4500" stroke-width="1.51"/><path d="M1985,-217L2145,-257L1793,-225Z" fill="#ff9700" stroke="#ff9700" stroke-width="1.51"/><path d="M1679,-255L2145,-257L1482,-276Z" fill="#ff8d00" stroke="#ff8d00" stroke-width="1.51"/><path d="M2183,-44L2145,-257L1985,-217Z" fill="#ff9f00" stroke="#ff9f00" stroke-width="1.51"/><path d="M-267,948L-268,1448L-233,1131Z" fill="#ff9300" stroke="#ff9300" stroke-width="1.51"/><path d="M-230,1288L-268,1448L-116,1358Z" fill="#ffa000" stroke="#ffa000" stroke-width="1.51"/><path d="M-283,757L-268,1448L-267,948Z" fill="#ff8a00" stroke="#ff8a00" stroke-width="1.51"/><path d="M69,-221L-80,-253L-101,-84Z" fill="#ff3b00" stroke="#ff3b00" stroke-width="1.51"/><path d="M-101,-84L-231,-78L-232,142Z" fill="#ff4200" stroke="#ff4200" stroke-width="1.51"/><path d="M760,-265L-80,-253L450,-234Z" fill="#ff4d00" stroke="#ff4d00" stroke-width="1.51"/><path d="M1482,-276L-80,-253L760,-265Z" fill="#ff5c00" stroke="#ff5c00" stroke-width="1.51"/><path d="M-224,-223L-231,-78L-101,-84Z" fill="#ff3700" stroke="#ff3700" stroke-width="1.51"/><path d="M-232,142L-231,-78L-257,318Z" fill="#ff4a00" stroke="#ff4a00" stroke-width="1.51"/><path d="M-80,-253L-224,-223L-101,-84Z" fill="#ff3400" stroke="#ff3400" stroke-width="1.51"/><path d="M-231,-78L-224,-223L-257,318Z" fill="#ff4000" stroke="#ff4000" stroke-width="1.51"/></svg>